<?xml version="1.0" encoding="UTF-8"?>
<svg width="180px" height="180px" viewBox="0 0 180 180" version="1.1" xmlns="http://www.w3.org/2000/svg" xmlns:xlink="http://www.w3.org/1999/xlink">
    <title>apple-touch-icon</title>
    <defs>
        <path d="M0,0 L180,0 L180,180 L0,180 L0,0 Z" id="path-1"></path>
        <linearGradient x1="50%" y1="0%" x2="50%" y2="100%" id="linearGradient-2">
            <stop stop-color="#C8C8C8" offset="0%"></stop>
            <stop stop-color="#979797" offset="100%"></stop>
        </linearGradient>
        <linearGradient x1="50%" y1="0%" x2="50%" y2="100%" id="linearGradient-3">
            <stop stop-color="#F7B213" offset="0%"></stop>
            <stop stop-color="#EB7B08" offset="100%"></stop>
        </linearGradient>
        <linearGradient x1="50%" y1="43.5859375%" x2="50%" y2="100%" id="linearGradient-4">
            <stop stop-color="#F7B213" offset="0%"></stop>
            <stop stop-color="#EB7B08" offset="100%"></stop>
        </linearGradient>
        <path d="M25.638852,0 L128.361148,1.81366828e-15 C137.276335,-1.0537935e-15 140.509198,0.928256112 143.768457,2.67132704 C147.027716,4.41439796 149.585602,6.97228371 151.328673,10.231543 C153.071744,13.4908022 154,16.7236646 154,25.638852 L154,54.361148 C154,63.2763354 153.071744,66.5091978 151.328673,69.768457 C149.585602,73.0277163 147.027716,75.585602 143.768457,77.328673 C140.509198,79.0717439 137.276335,80 128.361148,80 L25.638852,80 C16.7236646,80 13.4908022,79.0717439 10.231543,77.328673 C6.97228371,75.585602 4.41439796,73.0277163 2.67132704,69.768457 C0.928256112,66.5091978 0,63.2763354 0,54.361148 L1.81366828e-15,25.638852 C-1.0537935e-15,16.7236646 0.928256112,13.4908022 2.67132704,10.231543 C4.41439796,6.97228371 6.97228371,4.41439796 10.231543,2.67132704 C13.4908022,0.928256112 16.7236646,0 25.638852,0 Z" id="path-5"></path>
    </defs>
    <g id="apple-touch-icon" stroke="none" fill="none" xlink:href="#path-1">
        <use fill="#F5F5F5" fill-rule="evenodd" xlink:href="#path-1"></use>
        <path d="M65.8109167,94.2734177 L62.059875,105.957628 L62.2522361,105.957628 L77.5449444,94.2734177 L84.7584861,94.2734177 L78.6991111,113.162891 L71.4855694,113.162891 L75.2366111,101.478681 L59.7515417,113.162891 L52.538,113.162891 L58.7897361,94.2734177 L65.8109167,94.2734177 Z M54.8694167,93.9924051 L48.7138611,112.881879 L41.6926806,112.881879 L46.3093472,98.6660893 L44.7141739,98.6618016 L43.3917408,98.6619973 C43.1468492,98.6626284 42.9378121,98.6636562 42.7646294,98.6650808 L42.0081017,98.6736396 C41.4102243,98.6829782 40.8303449,98.7026857 40.5385139,98.7634577 C39.5647394,98.9662403 39.1191888,99.4213646 38.7110833,99.8345103 C37.7492778,100.808195 36.1462685,105.157317 33.9020556,112.881879 L24.284,112.881879 L25.8228889,108.208195 L28.4197639,108.208195 L28.6278809,107.467276 C29.4030615,104.722358 29.9996739,102.781992 30.4177181,101.646179 L30.8025384,100.609075 C31.2541589,99.3985713 31.6696411,98.3432582 32.1708056,97.4976682 L32.3117343,97.2608211 C32.5039213,96.9404661 32.7132743,96.6074887 32.94025,96.3292472 C33.4777137,95.6703892 34.0936416,95.1637166 34.6715,94.7713524 C35.2758597,94.360994 36.2376652,94.1013449 37.5569167,93.9924051 L54.8694167,93.9924051 Z M108.915194,91.7443038 L108.049569,94.2758827 L120.745403,94.2758827 L114.589847,113.165356 L102.086375,113.165356 L101.22075,115.696935 L94.1033889,115.696935 L94.9690139,113.165356 L82.177,113.165356 L88.3325556,94.2758827 L100.932208,94.2758827 L101.701653,91.7443038 L108.915194,91.7443038 Z M154.243167,94.2734177 L149.530319,108.489207 L153.377542,108.489207 L151.742472,113.162891 L140.97025,113.162891 L145.490736,99.1418388 L141.547333,99.1418388 L137.026847,113.162891 L130.005667,113.162891 L134.526153,99.1418388 L130.101847,99.1418388 L125.581361,113.162891 L118.464,113.162891 L124.523375,94.2734177 L154.243167,94.2734177 Z M111.969889,99.0506329 L106.644296,99.0506329 L103.506,108.398001 L108.926693,108.398001 L111.969889,99.0506329 Z M99.5048889,99.0506329 L94.1792959,99.0506329 L91.041,108.398001 L96.5567928,108.398001 L99.5048889,99.0506329 Z" id="LIFT" fill="url(#linearGradient-2)" fill-rule="evenodd"></path>
        <path d="M39.0759167,66.2734177 L35.324875,77.9576282 L35.5172361,77.9576282 L50.8099444,66.2734177 L58.0234861,66.2734177 L51.9641111,85.1628914 L44.7505694,85.1628914 L48.5016111,73.4786809 L33.0165417,85.1628914 L25.803,85.1628914 L32.0547361,66.2734177 L39.0759167,66.2734177 Z M112.096194,63.7443038 L111.230569,66.2758827 L123.926403,66.2758827 L117.770847,85.1653564 L105.267375,85.1653564 L104.40175,87.6969354 L97.2843889,87.6969354 L98.1500139,85.1653564 L85.358,85.1653564 L91.5135556,66.2758827 L104.113208,66.2758827 L104.882653,63.7443038 L112.096194,63.7443038 Z M69.1842778,66.2734177 L66.6835833,73.3813125 L78.4176111,73.3813125 L80.822125,66.2734177 L88.0356667,66.2734177 L81.7839306,85.1628914 L74.5703889,85.1628914 L76.9749028,78.0549967 L65.3370556,78.0549967 L62.9325417,85.1628914 L55.719,85.1628914 L61.8745556,66.2734177 L69.1842778,66.2734177 Z M153.396125,66.2734177 L147.144389,85.1628914 L121.368,85.1628914 L127.715917,66.2734177 L153.396125,66.2734177 Z M115.150889,71.0506329 L109.825296,71.0506329 L106.687,80.3980013 L112.107693,80.3980013 L115.150889,71.0506329 Z M102.685889,71.0506329 L97.3602959,71.0506329 L94.222,80.3980013 L99.7377928,80.3980013 L102.685889,71.0506329 Z M144.670625,71.0506329 L133.032778,71.0506329 L129.955,80.2032645 L141.496667,80.2032645 L144.670625,71.0506329 Z" id="INFO" fill="url(#linearGradient-3)" fill-rule="evenodd"></path>
        <g id="Logo" transform="translate(12, 50)" xlink:href="#path-5" stroke="url(#linearGradient-4)" stroke-linejoin="square" stroke-width="5">
            <path d="M142.58946,4.87586003 C145.413048,6.38593146 147.614069,8.58695204 149.12414,11.4105401 C150.884908,14.7028903 151.5,17.8880975 151.5,25.638852 L151.5,54.361148 C151.5,62.1119025 150.884908,65.2971097 149.12414,68.5894599 C147.614069,71.413048 145.413048,73.6140685 142.58946,75.12414 C139.29711,76.8849081 136.111902,77.5 128.361148,77.5 L25.638852,77.5 C17.8880975,77.5 14.7028903,76.8849081 11.4105401,75.12414 C8.58695204,73.6140685 6.38593146,71.413048 4.87586003,68.5894599 C3.11509189,65.2971097 2.5,62.1119025 2.5,54.361148 L2.5,25.638852 C2.5,17.8880975 3.11509189,14.7028903 4.87586003,11.4105401 C6.38593146,8.58695204 8.58695204,6.38593146 11.4105401,4.87586003 C14.7028903,3.11509189 17.8880975,2.5 25.638852,2.5 L128.361148,2.5 C136.111902,2.5 139.29711,3.11509189 142.58946,4.87586003 Z"></path>
        </g>
    </g>
</svg>