<?xml version="1.0" encoding="UTF-8"?>
<svg width="3000px" height="3000px" viewBox="0 0 3000 3000" version="1.1" xmlns="http://www.w3.org/2000/svg" xmlns:xlink="http://www.w3.org/1999/xlink">
    <title>artboard-lift</title>
    <defs>
        <path d="M0,0 L3000,0 L3000,3000 L0,3000 L0,0 Z" id="path-1"></path>
    </defs>
    <g id="artboard-lift" stroke="none" fill="none" xlink:href="#path-1" fill-rule="evenodd" stroke-width="1">
        <g id="size" transform="translate(955.3164, 743.5706)" stroke="#EB7B08">
            <path d="M1350.97285,37.4294225 L1350.97285,874.328774 C1350.97285,894.211025 1334.8551,910.328774 1314.97285,910.328774 L715.307374,910.328774 C695.425123,910.328774 679.307374,894.211025 679.307374,874.328774 L679.307374,48.182512 C679.307374,42.3685818 674.594253,37.6554602 668.780323,37.6554602 C662.966392,37.6554602 658.253271,42.3685818 658.253271,48.182512 L658.253271,874.328774 C658.253271,894.211025 642.135522,910.328774 622.253271,910.328774 L35.6835993,910.328774 C15.8013483,910.328774 -0.316400745,894.211025 -0.316400745,874.328774 L-0.316400362,37.2780325 L-0.308765483,37.1268342 L-0.153878372,34.0595076 L-0.146197682,33.9074021 L-0.13081,33.7558821 C1.72662399,15.4660357 17.1703353,1.4294225 35.6835993,1.4294225 L1314.97285,1.4294225 C1334.8551,1.4294225 1350.97285,17.5471715 1350.97285,37.4294225 Z" id="s0" stroke-width="12" stroke-linejoin="round"></path>
            <path d="M29.6835993,43.4294225 L29.6835993,867.429423 C29.6835993,874.056839 35.0561823,879.429423 41.6835993,879.429423 L620.845318,879.429423 C627.472735,879.429423 632.845318,874.056839 632.845318,867.429423 L632.845318,43.4294225 C632.845318,36.8020055 627.472735,31.4294225 620.845318,31.4294225 L41.6835993,31.4294225 C35.0561823,31.4294225 29.6835993,36.8020055 29.6835993,43.4294225 Z" id="s1" stroke-width="9" fill-opacity="0.35" fill="#EB7B08"></path>
            <path d="M705.683599,465.429423 L705.683599,868.084883 C705.683599,874.7123 711.056182,880.084883 717.683599,880.084883 L1310.52961,880.084883 C1317.15702,880.084883 1322.52961,874.7123 1322.52961,868.084883 L1322.52961,465.429423 C1322.52961,458.802006 1317.15702,453.429423 1310.52961,453.429423 L717.683599,453.429423 C711.056182,453.429423 705.683599,458.802006 705.683599,465.429423 Z" id="s2" stroke-width="9" fill-opacity="0.35" fill="#EB7B08"></path>
            <path d="M705.683599,43.4294225 L705.683599,419.91569 C705.683599,426.543107 711.056182,431.91569 717.683599,431.91569 L978.619987,431.91569 C985.247404,431.91569 990.619987,426.543107 990.619987,419.91569 L990.619987,43.4294225 C990.619987,36.8020055 985.247404,31.4294225 978.619987,31.4294225 L717.683599,31.4294225 C711.056182,31.4294225 705.683599,36.8020055 705.683599,43.4294225 Z" id="s3" stroke-width="9" fill-opacity="0.35" fill="#EB7B08"></path>
            <path d="M1005.6836,43.4294225 L1005.6836,219.672556 C1005.6836,226.299973 1011.05618,231.672556 1017.6836,231.672556 L1309.97728,231.672556 C1316.6047,231.672556 1321.97728,226.299973 1321.97728,219.672556 L1321.97728,43.4294225 C1321.97728,36.8020055 1316.6047,31.4294225 1309.97728,31.4294225 L1017.6836,31.4294225 C1011.05618,31.4294225 1005.6836,36.8020055 1005.6836,43.4294225 Z" id="s4" stroke-width="9" fill-opacity="0.35" fill="#EB7B08"></path>
        </g>
    </g>
</svg>