<svg id="imgCountry" class="map-img" xmlns="http://www.w3.org/2000/svg" viewBox="0 0 3000 3000" preserveAspectRatio="xMidYMid slice">
            <g id="regions-group">

              <!-- Область 1 -->
              <g id="g1" transform="translate(1331 1108)">

                <path id="l1" fill="#fff9f1" fill-opacity="0" stroke="#ffba75" stroke-width="3" d="m408.6 90.9-2 5.1a10 10 0 0 0-.6 3.6v4.5q0 1.7-.5 3.2l-1.1 3.2a10 10 0 0 0 .2 6.9l.5 1.3c1.2 3 .6 6.3-1.5 8.6l-4 4.4a8 8 0 0 0-1.9 8.2l1 3.1q.6 1.5.6 3v5.9q0 3.8 2.5 6.6l1.7 1.9a10 10 0 0 1 2.5 6.7v12.2l.3 2.4 1.1 4.5a10 10 0 0 1-.5 6.4l-2.3 5.5a10 10 0 0 1-4.3 4.8l-2.8 1.6a8 8 0 0 0-3.6 9.5l5.2 14.8.3.9 3 12a10 10 0 0 0 3.8 5.7l2.3 1.6a3.3 3.3 0 0 1-.9 5.8l-1.7.5a6.4 6.4 0 0 0-4.4 6v.2a3.2 3.2 0 0 1-4.2 3.1 6 6 0 0 0-6.8 2.3l-4.5 6.5a10 10 0 0 1-9 4.4l-2.4-.2a9 9 0 0 0-8.6 4.2l-.8 1.3a10 10 0 0 0-1.5 7.3l.2.7a3.6 3.6 0 0 1-3.8 4.3l-2.2-.1a9 9 0 0 0-9.1 6l-.3.8a4.8 4.8 0 0 1-8 1.8l-7.9-8.2c-2-2-5-2.2-7.2-.6a6.4 6.4 0 0 1-7.7 0l-1.2-1a6 6 0 0 0-8.7 1.3L301 305a10 10 0 0 1-4.6 3.6l-11 4.2a9.4 9.4 0 0 0-5.9 11l1 4.4q1 3.8-.9 7.2l-.1.2c-1.2 2.2-1 5 .4 7l3.6 5c1.5 2 1.6 4.8.3 7l-.3.4a7 7 0 0 1-5.9 3.3h-4.1l-22.9 1a4 4 0 0 0-3.3 6l.7 1.2a10 10 0 0 0 7.6 5l17.3 2q2.7.3 3.7 3t3.7 3.2l8.1 1.4c4.2.7 7.6 4 8.2 8.3l2.6 16.3 1.1 6.6a5.7 5.7 0 0 1-4.8 6.5l-1.5.2a4.6 4.6 0 0 0-3.9 5l.4 4v.4l.5 4q.4 4-2.7 6.7l-.8.6a8 8 0 0 0-2.6 7.8l.1.7q1 4-1.2 7.6l-2 2.9-.6 1.1-1.7 3.7a5.5 5.5 0 0 0 1.9 6.9l2.8 1.9a9 9 0 0 1 3.7 10l-1.5 5a10 10 0 0 0-.4 2.9v9.7c0 3-1.4 6-3.8 7.9l-6.6 5.2a10 10 0 0 1-4.2 2l-7.2 1.5a10 10 0 0 1-6.6-.9l-7.8-4a10 10 0 0 0-5.4-1.1l-7.8.5a9 9 0 0 0-7.5 5.7l-.5 1.5a10 10 0 0 1-5 5.6l-4 2q-2.9 1.4-5.6-.1a7 7 0 0 0-5.6-.4l-1.1.4c-2.4 1-5.2.3-7-1.5l-2.6-2.6a10 10 0 0 0-4.4-2.7l-1.8-.4a9 9 0 0 1-5.7-5.5l-.2-.5a6 6 0 0 0-6.6-4l-12.7 2c-3.4.6-6.2 3-7.3 6.2l-.8 2.6a10 10 0 0 1-3.1 4.5l-4.5 3.7a10 10 0 0 1-13-.3l-9.6-8.6a10 10 0 0 0-3.5-2l-2.1-.7a6 6 0 0 1-4.2-5.7v-5q0-3.1-1.8-5.8l-1.5-2.1a10 10 0 0 1-1.2-9.3l3.3-8.7q1.2-3.3.1-6.7l-1-3a8 8 0 0 0-8.7-5l-3 .6c-3 .6-6.2-.4-8.4-2.5l-1.9-1.9a10 10 0 0 1-2.4-3.7l-2.7-7.4a10 10 0 0 0-6.5-6.2L68 439.1a10 10 0 0 0-9.2 1.7l-7.7 6.1a6 6 0 0 1-8.1-.4 8 8 0 0 1-1.6-8.6l1.3-2.8c1.8-3.7 1.1-8-1.6-11l-2.7-3a10 10 0 0 1 .8-14.1l3.3-3a10 10 0 0 0 .3-14.7l-11.3-10.7a10 10 0 0 1 .4-14.8l5-4.5c2.8-2.3 4-6 3.3-9.5l-.5-2.4a10 10 0 0 1 6.2-11l6.4-2.5a10 10 0 0 0 6.3-10.8l-1.7-11.4a10 10 0 0 0-1.6-4L24 260.8a10 10 0 0 1-1.7-6.9l1.8-13.8a10 10 0 0 1 3-5.9l10.2-10a10 10 0 0 0 .6-13.7l-4.4-5a10 10 0 0 0-11.2-2.8l-1.7.7a9 9 0 0 1-11.8-4.9L3.5 187a10 10 0 0 1 3.8-12.5l42.9-26.8q2.6-1.6 3.8-4.3l6.5-14.3a10 10 0 0 1 3.8-4.3l2-1.3c2.9-1.8 4.4-5 3.9-8.3l-2.5-15.9a10 10 0 0 1 2.2-8l.6-.6c2-2.4 2-6 0-8.3l-8.7-10.6a10 10 0 0 1-2.3-5.6l-.7-8.2a10 10 0 0 0-5.3-8l-14.1-7.4a10 10 0 0 1-5.1-6.7l-3.6-16.2a9 9 0 0 1 7-10.5l8.8-1.6h.5l23.7-3.2.5-.1 27.2-5q3.8-.6 7.2 1.4l7.2 4.7a10 10 0 0 0 7.3 1.4l14.3-2.6A10 10 0 0 1 145 9l5.9 10.8a10 10 0 0 0 3 3.5L175.3 38a10 10 0 0 1 4.3 8.2v1.2a8 8 0 0 0 6.3 7.8L194 57a10 10 0 0 1 7.9 8.8l.5 5a9.6 9.6 0 0 0 9 8.7l6.5.4q1.6 0 3.1.7l9.2 3.7a10 10 0 0 0 9.9-1.4l10.5-8.2a10 10 0 0 1 13.3 1l10.7 10.8a6.2 6.2 0 0 0 10.4-3l.7-3a10 10 0 0 1 10.2-7.9l8 .3a10 10 0 0 1 9.3 7.5l1 4a10 10 0 0 0 8.1 7.4l13.8 2.3q3.9.7 7-1.4l16.6-10.5c3-2 7-2.1 10.1-.4l13 7a10 10 0 0 0 7.5.9l13.8-3.8a3.7 3.7 0 0 1 4.4 5Z"/>

                <!-- Точка (удален cx/cy, используем transform для точности если нужно, или оставляем так) -->
                <circle id="p1" cx="184" cy="232" r="15" fill="#eb7b08" style="opacity: 0; transform-box: fill-box; transform-origin: center;"/>

              </g>

              <!-- Область 2 -->
              <g id="g2" transform="translate(1351 870)">

                <!-- Добавили fill-opacity="0" -->
                <path id="l2" fill="#fff8ee" fill-opacity="0" stroke="#ffba75" stroke-width="3" d="m6 244-2-1q-2-4-2-9l4-11q1-5 7-6l40-11 6-4 9-13a10 10 0 0 0-7-16l-26-1 4-29q1-5-2-8l-1-1q-3-5 1-9l6-5 4-6 2-9a7 7 0 0 1 9-6h1q7 2 10-4l14-19 6-3 21-7q5-1 8 2l9 5q3 2 7 1l11-2 5 1 5 2q7 1 11-4l5-9 2-4v-5l2-4 25-34 4-4 19-8 5-1 9 1q5 0 6 3l7 6q4 3 10 2l14-6h6l8 2q4 0 7 5l7 16q3 7 10 6l8-1 3-1 21-11q6-2 10 1l12 7 3 1 11 3a10 10 0 0 1 7 12l-5 22v7l3 5q2 6 8 7h6q3 0 7-2l7-7 6-2 5-1q5 0 6-3l11-10q3-5 8-3l19 2 5-1 8-3q5-2 9 0l21 13h1l16 11 2 2 15 21h1l3 5q3 3 8 2l2-1a6 6 0 0 1 8 5l1 4 1 4-4 26v3l1 5q1 4-2 7l-5 7q-4 5-1 12l7 9 1 2 8 18q2 3 1 6l-1 12-2 4-6 12-1 1-11 14-2 4-2 9q-1 7 4 10l20 13 3 3 3 4q1 4 6 5l10 2q5 2 6 8v1q0 5-4 7l-6 6a8 8 0 0 0 1 12l6 3 4 5v1a2 2 0 0 1-2 3l-6-1q-4-2-7 1l-8 4h-6q-3-3-7-1l-4 3-3 1-21 6q-3 1-6 4l-7 11a9 9 0 0 1-14 2l-4-3q-5-5-11-2l-4 2q-5 2-10-1l-10-6a7 7 0 0 0-9 3l-1 1q-3 5-8 5h-2q-4 0-7-4-2-3-6-2l-18 4-7-1-3-2q-7-3-12 2l-10 15a4 4 0 0 1-7 1v-1q-3-3-3-7v-7l-1-6q-1-5 2-8l4-6q3-3 1-8v-7l1-5v-7l1-4 2-4a4 4 0 0 0-5-5l-13 4-8-1-13-7q-5-3-10 0l-18 11q-4 2-7 1l-11-1q-6-2-8-7l-2-5q-2-6-8-7l-9-1a10 10 0 0 0-11 11v3a5 5 0 0 1-9 5l-14-15q-6-6-13-1l-9 7q-5 5-11 2l-8-5-6-1-4 1q-7 0-8-7l-1-7q-2-7-8-9l-9-1q-6-2-6-8v-2q0-5-4-8l-22-15-3-3-5-11q-5-6-11-5l-9 3h-4q-3 1-7-1l-10-6-6-1-62 10h-5l-3-1z"/>

                <!-- Точка (удален cx/cy, используем transform для точности если нужно, или оставляем так) -->
                <circle id="p2" cx="478.5" cy="197.5" r="6.5" fill="#eb7b08" style="opacity: 0; transform-box: fill-box; transform-origin: center;"/>


              </g>

              <!-- Область 3 -->
              <g id="g3" transform="translate(1575 1220)">

                <!-- Добавили fill-opacity="0" -->
                <path id="l3" fill="#fff7eb" fill-opacity="0" stroke="#ffba75" stroke-width="3" d="m165 46 7-6.7a10 10 0 0 0 1.7-2.3l3-5.2a6.6 6.6 0 0 1 9.6-2.2l3 2.2a10 10 0 0 0 8.7 1.5l17.5-5.2a4 4 0 0 1 5 3.3 5.5 5.5 0 0 0 5.1 5l3.9.2a10 10 0 0 0 9.4-5l1.5-2.7a7.7 7.7 0 0 1 11.7-2l5.7 4.9a10 10 0 0 0 10.8 1.4l5.2-2.4a10 10 0 0 1 13 4.1l.8 1.5a6.8 6.8 0 0 0 11.6.5l9-13.1a10 10 0 0 1 5.6-4l22.3-6a10 10 0 0 0 3.5-1.8l2.8-2.2c2-1.4 4.6-1.3 6.4.4a6 6 0 0 0 6.6 1l8.8-5a10 10 0 0 1 14.5 5.6l7 21.9q.3 1 .9 2l7.7 13q1.5 2.6 4 3.9l35.1 18 .7.3 20.5 8.8a10 10 0 0 1 6 10.7l-1.9 12.3q-.1 1.5-.9 3l-12.4 25.1a6 6 0 0 0 2.4 7.7l1.5.9a10 10 0 0 0 6.8 1.2l23.3-4.3q3-.5 6 .8l24.6 11.3.5.2 12 4.8c4.6 1.9 6.9 7 5.1 11.7l-1.3 3.6a10 10 0 0 0 1 9l13.2 19.6a10 10 0 0 0 2.4 2.5l13.2 9.8a10 10 0 0 1 4 9l-1 9.7a10 10 0 0 1-5.8 8l-11.7 5.4a10 10 0 0 0-3.2 2.3L528 255.3l-.5.4-22 20.9-2.2 1.5-16.1 8.6a10 10 0 0 1-6.2 1l-13.9-2a10 10 0 0 1-4.7-2l-15-12a10 10 0 0 1-2.3-2.4l-3-4.7a10 10 0 0 0-9.4-4.5l-13.8 1.3h-2.3l-7.4-1.1a10 10 0 0 0-9 3.3l-2 2.3a10 10 0 0 0-2.4 6.6v1.8c0 3-2.5 5.4-5.6 5.4h-6.4a10 10 0 0 1-4.8-1.1l-11.3-6.1a6 6 0 0 1-3.2-5.4v-.4q0-3.2-1.8-5.8l-6.3-9a8 8 0 0 0-6.5-3.4 2.4 2.4 0 0 1-2.1-3.6l1-1.8a3.1 3.1 0 0 0-3.2-4.6l-11.5 1.3q-1.4.2-2.6.7l-12.4 5.2a10 10 0 0 1-11.3-2.6l-2.7-3a10 10 0 0 0-12.4-2.1l-17.5 9.8q-1.2.7-2.6 1l-18 4.4a10 10 0 0 1-12-7.3l-1-3.7a8.7 8.7 0 0 0-10.3-6.3l-3.8.8a10 10 0 0 1-8.2-1.7l-1.7-1.2a9.5 9.5 0 0 0-11-.3l-1.6 1a10 10 0 0 0-4.4 9l1.3 23.3a6.4 6.4 0 0 1-6.4 6.7 5.3 5.3 0 0 0-5 6.5l2.7 11 .1.6 1.4 7.6a6.8 6.8 0 0 1-6.6 8h-26.3l-16.9-2.5a10 10 0 0 0-8.7 3.1l-8.5 9.2a10 10 0 0 1-2.7 2l-13.2 7a10 10 0 0 0-3.7 3.4l-7.8 12.1a10 10 0 0 1-3.3 3.2l-4.9 2.9a7 7 0 0 0-3.3 6c0 2.4-1.3 4.7-3.4 6l-2 1.4a10 10 0 0 1-9.7.6L70 360a10 10 0 0 0-9.7.5l-3.1 2a10 10 0 0 1-5.4 1.6h-2.7a10 10 0 0 1-5.3-1.5l-4.6-3a8 8 0 0 1-2.5-11.3l3.2-5a10 10 0 0 0 1.7-6l-.2-2.1a10 10 0 0 1 2-6.5l1-1.5a10 10 0 0 0 2-6.9l-.6-5.7c-.3-3.6 1.7-7 5-8.5s5-5 4.4-8.5l-3.4-19.4a10 10 0 0 0-7-7.8l-6.4-1.9a10 10 0 0 1-5.1-3.5 8 8 0 0 0-5.3-3l-16-2.1a10 10 0 0 1-3.7-1.3l-4-2.2a4 4 0 0 1-.8-6.2l.6-.5q2.9-3 7.1-3.1h19.5a9 9 0 0 0 8-5l.1-.2c1.5-2.9 1-6.4-1.2-8.8l-.1-.2a10 10 0 0 1-2.4-8.8l.7-3.5a10 10 0 0 0 0-4l-1-5.1a9 9 0 0 1 5.4-10l12.1-5.1a10 10 0 0 0 4-3.1l7.4-9.6c2.2-2.7 6-3.4 9-1.6l1.6 1a9 9 0 0 0 7.8.9c2.6-.9 5.4-.2 7.3 1.6l8 7.6a4.8 4.8 0 0 0 7.7-1.7l.5-1.4a10 10 0 0 1 7.6-6.3l2.4-.4a6 6 0 0 0 4.7-5.6v-1.7q0-3 1.6-5.5l1.5-2.2a9 9 0 0 1 8.7-3.8c3.5.6 7-.8 9-3.6l6.4-8.9a4 4 0 0 1 5.5-1.1 3.3 3.3 0 0 0 4.8-1.5l.4-1a10 10 0 0 1 3.2-4l1.5-1a4 4 0 0 0 .5-5.9l-2.2-2.2a10 10 0 0 1-2.2-3.6l-11.9-33a5.6 5.6 0 0 1 4.5-7.3l1.3-.2a10 10 0 0 0 7.9-5.8l2.4-5.5q1.3-3 .7-6l-1.3-6.4-.1-1.5-.5-11.9a10 10 0 0 1 3-7.6Z"/>

                <!-- Точка (удален cx/cy, используем transform для точности если нужно, или оставляем так) -->
                <circle id="p3" cx="275.5" cy="119.5" r="6.5" fill="#eb7b08" style="opacity: 0; transform-box: fill-box; transform-origin: center;"/>


              </g>

              <!-- Область 4 -->
              <g id="g4" transform="translate(1476 1450.3)">

                <!-- Добавили fill-opacity="0" -->
                <path id="l4" fill="#fff6e8" fill-opacity="0" stroke="#ffba75" stroke-width="3" d="M147.1 133.3h.4q3.5.9 6.8-.6l5.2-2.5a10 10 0 0 1 7.3-.5l4.8 1.5q3.4 1 6.7-.2l6.2-2.5c2-.7 3.1-2.7 3-4.7q-.2-3.5 2.5-5.7l4.4-3.2a10 10 0 0 0 2-2l9.9-13.5q1.2-1.6 3-2.7L224 88l1.7-1.2 10-9.2q3.5-3 8-2.5l15.8 2 1.3.2h22.6a10 10 0 0 0 9.7-12.8l-3.6-12.8c-1-3.1.6-6.4 3.6-7.7l1.7-.7q3.5-1.7 4.9-5.3l.6-2q.6-1.7.5-3.7l-1.1-18.9a10 10 0 0 1 2.8-7.6l1.3-1.3a9 9 0 0 1 10-1.9l5.8 2.6a10 10 0 0 0 5.8.8l4-.7a10 10 0 0 1 9.9 4l5.6 8a10 10 0 0 0 10 4l16.7-3.2q1.5-.3 3-1.1l16.5-9.4a10 10 0 0 1 11.4 1.1l4.5 3.8a10 10 0 0 0 9.3 2L431 10l1.7-.4L444 8.3a3 3 0 0 1 3.1 3.6v.1a5 5 0 0 0 2.6 5.8l1.4.6q2.4 1.1 4 3.3l7.1 10.4q1.6 2.1 1.3 4.8a4 4 0 0 0 2 3.9l14.6 8q2 1 4 1.1l4.1.4a3.2 3.2 0 0 1 2.2 5.2l-2.7 3.2a10 10 0 0 0-.6 12.1l6.3 9.3 1.4 1.7 18.8 17.4a10 10 0 0 1 3 5.6l2.3 13q.6 3.1-.8 6.1l-2.4 4.9a10 10 0 0 0-.6 7.2l2.8 9.6.2.7 4.2 11.2q1.2 3.3.1 6.5l-2.1 6.8a10 10 0 0 0-.3 5l4.2 20.5q.3 1.2.2 2.5l-.2 5.6a10 10 0 0 0 1.7 6.1l16.7 24.5c1.5 2.2 1.7 5 .6 7.4a6 6 0 0 1-6 3.4l-22.8-2.1a10 10 0 0 1-3.6-1l-5-2.6a8 8 0 0 0-8.8 1.2l-2.6 2.2a10 10 0 0 0-2.3 2.9l-3 5.7a7.3 7.3 0 0 1-10.7 2.6l-8.3-5.8a10 10 0 0 0-8.4-1.4l-11.8 3.3a10 10 0 0 0-6.4 5.3l-3.4 7.2-1.5 2.2-24.6 28a10 10 0 0 0-2.3 4.6l-1.6 8a10 10 0 0 1-2.6 5l-8.2 8.6a10 10 0 0 0-2.3 3.6l-6.1 17.8a10 10 0 0 0-.1 6.4l6.3 19.4.3.7 5.6 13.7.6 1.3 2.8 4.8a10 10 0 0 1-.5 10.4l-3.1 4.3a10 10 0 0 1-9.5 4l-6.7-.9a10 10 0 0 1-7.5-5.2l-6-11.5-.6-1-4.3-11a10 10 0 0 0-6-5.7l-21.7-7.4a10 10 0 0 0-5.6-.2l-20.6 5.2a10 10 0 0 1-6.4-.5l-8.4-3.7a10 10 0 0 0-10.2 1.3L272.4 379a10 10 0 0 1-4.9 2.1l-12 1.6c-4.5.6-9-2-10.6-6.3l-7.7-20-.5-1.2-5.2-9.5a10 10 0 0 0-8.4-5.2l-2.8-.1a10 10 0 0 0-6 1.7l-6.5 4.4a10 10 0 0 1-3.3 1.4l-10.5 2.5a10 10 0 0 0-6.6 5.3l-5.7 11.5-1 1.5-3 4a3.8 3.8 0 0 1-6.3-.5l-2.9-5q-.8-1.5-1-3l-1.2-5.8a10 10 0 0 0-5.9-7.2l-6.8-2.9a10 10 0 0 0-3.9-.8h-2.3a10 10 0 0 0-6 2l-4.2 3.1a6.4 6.4 0 0 1-9.8-2.7l-3.7-9.6a6.7 6.7 0 0 0-10.6-2.7l-6 5.2a10 10 0 0 1-2.4 1.5l-9.1 4.1a10 10 0 0 1-8.2 0l-8-3.5a10 10 0 0 0-13.6 6.4l-3 10.5a7 7 0 0 1-6 5 4.2 4.2 0 0 1-4.5-4.2v-8.3q-.1-4.5-3.5-7.5l-5.6-4.8a10 10 0 0 0-7.4-2.4l-1.7.1a6 6 0 0 1-6.2-5.3l-.4-6.7a10 10 0 0 1 2-6.7l2.2-2.8a10 10 0 0 0 1.1-10.1l-2.1-4.8a10 10 0 0 1-.2-7.6l2.4-6.4a10 10 0 0 0-1.3-9.4l-.1-.1a6 6 0 0 1 1-8l2.5-2a6.6 6.6 0 0 0-.2-10.4L33 258a10 10 0 0 1-3.5-11l3.3-10.5q1-2.7.2-5.6l-2.7-10a10 10 0 0 0-6.2-7L10.4 209a10 10 0 0 1-5.2-4.4l-2.7-4.8A10 10 0 0 1 2 191l1.6-3.7a10 10 0 0 1 2.7-3.7l4.4-3.7q1.6-1.3 2.5-3.2L15 173a10 10 0 0 1 6.4-5.2l5.8-1.5 2.1-.3 4.3-.2a7 7 0 0 1 7.2 4.8l.1.3a9 9 0 0 0 7.2 6h.5c3 .6 5.7 2.5 6.9 5.3v.1a4 4 0 0 0 5.9 1.6 9 9 0 0 1 8.4-1.3c2.7 1 5.8.4 8-1.6l4.1-4a10 10 0 0 0 1.8-2.3l1.3-2.2a8 8 0 0 1 6-3.8l8.5-.5a10 10 0 0 1 5.2 1l7.3 3.8a10 10 0 0 0 6.8 1l8.5-2a10 10 0 0 0 3.6-1.7l7.3-5.2c3.1-2.2 4.7-6 4.1-9.7l-1-6.9q-.3-1.5 0-3l1.3-9.3a3.6 3.6 0 0 1 4.5-3Z"/>

                <!-- Точка (удален cx/cy, используем transform для точности если нужно, или оставляем так) -->
                <circle id="p4" cx="451.5" cy="184.3" r="6.5" fill="#eb7b08" style="opacity: 0; transform-box: fill-box; transform-origin: center;"/>


              </g>

              <!-- Область 5 -->
              <g id="g5" transform="translate(986 1438.5)">

                <!-- Добавили fill-opacity="0" -->
                <path id="l5" fill="#fff6e8" fill-opacity="0" stroke="#ffba75" stroke-width="3" d="m491.9 203.3-.1.3a10 10 0 0 0 .3 6.7l1.2 2.9a10 10 0 0 0 5 5.2l16 7.7a10 10 0 0 1 5.3 6l3.3 10.6a10 10 0 0 1 0 5.7l-2.7 9.9a10 10 0 0 0 1.8 9l3.4 4.2a7.5 7.5 0 0 1-1.8 11l-2 1.3a5.6 5.6 0 0 0-1.5 8l.5.8c2 2.6 2.5 6 1.5 9.1l-2 5.8a10 10 0 0 0 1 8.2l2 3.4a10 10 0 0 1-1.4 11.8l-2 2a10 10 0 0 0-2.5 8.4l.7 4.2c.5 3.6-1.3 7.1-4.5 8.8l-2.6 1.3a10 10 0 0 1-6 1l-11-1.6a10 10 0 0 1-8.4-7.6l-3.2-13.5a10 10 0 0 0-9-7.6l-10.5-.7q-1.5 0-2.9.2l-14.2 3.3a10 10 0 0 1-7.3-1.1l-21.8-12.8a10 10 0 0 0-7-1.2l-13 2.6a10 10 0 0 1-8.1-2l-9-7a10 10 0 0 0-4.4-2l-18.9-3.5a10 10 0 0 1-3.9-1.6l-6.6-4.6a10 10 0 0 0-6.9-1.7l-10 1.2a10 10 0 0 1-5.2-.7l-5.5-2.4a10 10 0 0 0-7.2-.3l-9.2 3.1a10 10 0 0 1-3.8.5l-34.7-1.8-2.2-.4-19.1-5.5a10 10 0 0 0-6.5.4l-24 9.5a10 10 0 0 1-3.7.7H198l-11.8 2.4-1.4.1-35 2a10 10 0 0 0-5.9 2.5l-10 8.6a10 10 0 0 0-3 4.6l-4.9 15.6q-1 3.1-3.7 5.1l-23.9 17.1a10 10 0 0 1-10.7.6l-16.2-9a10 10 0 0 0-11.6 1.3l-6.4 5.8a10 10 0 0 0-2.8 4.3l-1.5 4.4a3.1 3.1 0 0 1-5.7.5l-2.2-4.1a10 10 0 0 1-1-7l15-70a10 10 0 0 0-.8-6.4L42.4 252a10 10 0 0 0-5-4.7L7.5 234a10 10 0 0 1-5.7-11.4l4.5-20a10 10 0 0 1 3-5.3L50 161a10 10 0 0 1 6.7-2.6h7.8q4.6-.1 7.6-3.5l14-16.4a10 10 0 0 0 2.5-6.5v-1c0-2.5 2-4.6 4.6-4.6h7.6q4.5-.1 7.4-3.5a4 4 0 0 1 6-.2l6.7 7.2a10 10 0 0 0 10.1 2.7l10.5-3.1a10 10 0 0 1 7 .4l3.2 1.5c3.8 1.7 8.3.4 10.5-3.1l5.4-8.5a10 10 0 0 0 .7-9.2v-.2c-1.4-3-1-6.6 1.1-9.3l8-10.4a8 8 0 0 1 11.2-1.3l2.7 2.2a10 10 0 0 0 8 2l9.6-1.7a10 10 0 0 1 9 2.8l4.4 4.5a10 10 0 0 1 2.8 7v1.7a4.2 4.2 0 0 0 5.5 4l4.8-1.5q3.2-1 6.3 0l5.5 2a6.5 6.5 0 0 0 8.7-6.1V102c0-4.5 3-8.3 7.3-9.3l4-1a10 10 0 0 0 5.6-3.6l9.5-12.3q1-1.5 1.6-3l5.8-17.8c1-3.2.4-6.7-1.6-9.3l-.7-1a9 9 0 0 1-.6-10.5l9.5-14.8a10 10 0 0 0 1.6-5.4V9.8a6 6 0 0 1 7-5.8l10.6 2.3q3.4.7 6.4-.8l7.8-3.7a10 10 0 0 1 7.5-.5l15.3 5.2q1.6.5 3.2.5h22.8q2.6 0 4.7 1.5a5 5 0 0 1 2.1 4.1v7.8q0 4.1-2.9 7l-5.4 5.4a10 10 0 0 0-.1 14L388.4 59a10 10 0 0 1-.3 14.3l-3.6 3.3a10 10 0 0 0-.9 13.8l3.8 4.4a10 10 0 0 1 2 8.6l-2 9.9a3.6 3.6 0 0 0 3 4.3c2.4.3 5-.5 6.8-2.1l5.6-5.1a10 10 0 0 1 9.6-2.2l14.4 4.4a10 10 0 0 1 6.1 5.2l5.8 11.8a9.7 9.7 0 0 0 12.6 4.6l1.4-.6a6.5 6.5 0 0 1 8.8 4.5l1 4.5q.8 3-.3 5.9l-3.8 9.9c-1.2 3-.6 6.5 1.5 9l1 1.4a10 10 0 0 1 2.4 6.4v3.5c0 3.3 1.8 6.3 4.8 7.8l3.6 1.7q1.3.6 2.4 1.7l7 6.4a10 10 0 0 0 5.7 2.6l2.3.3a3.2 3.2 0 0 1 2.8 4.2Z"/>

                <!-- Точка (удален cx/cy, используем transform для точности если нужно, или оставляем так) -->
                <circle id="p5" cx="62.5" cy="263" r="6.5" fill="#eb7b08" style="opacity: 0; transform-box: fill-box; transform-origin: center;"/>


              </g>

              <!-- Область 6 -->
              <g id="g6" transform="translate(1020.3 1107.5)">

                <!-- Добавили fill-opacity="0" -->
                <path id="l6" fill="#fff8ed" fill-opacity="0" stroke="#ffba75" stroke-width="3" d="m348.6 338.8-1.3-.5a10 10 0 0 0-3.2-.6h-22q-1.6 0-3-.4l-16-5.1a10 10 0 0 0-7 .3l-9.3 4a10 10 0 0 1-5.8.7l-8.6-1.6a7 7 0 0 0-8 5.1L263 346l-.8 2.1-9.5 18a10 10 0 0 0 .1 9.4l1.6 3a10 10 0 0 1 .7 8l-6.3 18.3q-.6 1.5-1.6 2.9l-8.6 11a10 10 0 0 1-4.7 3.3l-5 1.7a10 10 0 0 0-6.8 8l-.7 5.4a7.2 7.2 0 0 1-9.2 5.9l-5.1-1.6a10 10 0 0 0-5.7 0l-4.1 1.3a4.6 4.6 0 0 1-5.8-3.5l-.4-2.1a10 10 0 0 0-2.5-4.8l-5.4-6a10 10 0 0 0-8.5-3.1l-10.4 1.2a10 10 0 0 1-6.6-1.5l-3.7-2.4a8.6 8.6 0 0 0-11.6 2l-7.1 9.4a10 10 0 0 0-1.8 8.2l.7 3.3a10 10 0 0 1-1 7l-4.6 8.1a9 9 0 0 1-11.1 4l-4-1.6a10 10 0 0 0-6.6-.2l-9.4 3a10 10 0 0 1-9.8-2.3l-6.8-6.2a6.4 6.4 0 0 0-8.2-.5l-1.3 1a10 10 0 0 1-6.5 2l-3.7-.2a8.5 8.5 0 0 1-8-7.6L50.8 428a10 10 0 0 1 .6-4.8l2-5q1.6-4-.3-7.9l-5-10.6a10 10 0 0 1-.5-7.1l2.6-8.7a10 10 0 0 0-.9-8l-6.2-10.7-1-2L10.7 262l-.2-.5L3 231.3a6.6 6.6 0 0 1 8.6-7.8l7.6 2.6q3.9 1.4 7.6-.4l2.7-1.3c2.4-1.2 5.2-1 7.4.6 2 1.5 4.8 1.3 6.6-.4l3.8-3.6a10 10 0 0 1 10.4-2l6.5 2.4q3 1 6 .3l11-2.7q3.8-1 7.4 1l14.3 8a10 10 0 0 0 10.6-.6l24.8-17.3a10 10 0 0 1 5.7-1.8h11.5a8.4 8.4 0 0 0 8.1-10.6l-.7-2.7a10 10 0 0 1 5-11.4l6.3-3.2a10 10 0 0 1 5.6-1l11.9 1.2a10 10 0 0 0 9.3-4.2l12.9-18.6a10 10 0 0 1 6.7-4.2l14-2a9.7 9.7 0 0 1 11 8.5l.7 7.3a10 10 0 0 0 2.1 5.1l3.8 4.8a10 10 0 0 0 11.2 3.3l3.8-1.4a10 10 0 0 0 6.6-10.7l-1.8-13.6a10 10 0 0 0-5-7.4l-8.7-5a10 10 0 0 1-4-12.8l20-43.5a10 10 0 0 0 .9-5.7L271 53.1a10 10 0 0 1 1.2-6.3l11.4-20.3q1.7-3 4.8-4.3l18.2-7.7 1.2-.6 16.5-9.8c3.9-2.3 8.8-1 11.2 2.8l3.4 5.4q.9 1.5 1.2 3l4.6 20.4a10 10 0 0 0 5.2 6.7l14.7 7.6a10 10 0 0 1 5.4 8.8v5.6q0 3.6 2.3 6.4l8.5 10.2a8 8 0 0 1 .2 9.6l-1 1.4a10 10 0 0 0-2 7.8l2.8 15.8a8 8 0 0 1-3.7 8.3l-2 1.3a10 10 0 0 0-3.9 4.3l-6.5 14.3a10 10 0 0 1-3.7 4.3l-42 27a10 10 0 0 0-4 12l4.8 12c1.8 4.6 6.9 7 11.6 5.4l2.4-.8a10 10 0 0 1 10.3 2.5l4.2 4.3a10 10 0 0 1-.5 14.4l-9.7 8.8a10 10 0 0 0-3.2 5.7l-2.3 13.5q-.5 3.9 1.5 7.1l32 49.2q.9 1.3 1.3 2.8l2.8 10a10 10 0 0 1-5.5 11.8l-10.4 4.7q-2.8 1.2-5.7.3Z"/>

                <!-- Точка (удален cx/cy, используем transform для точности если нужно, или оставляем так) -->
                <circle id="p6" cx="45.3" cy="274" r="6.5" fill="#eb7b08" style="opacity: 0; transform-box: fill-box; transform-origin: center;"/>


              </g>
            </g>
            <!-- ГЛАВНЫЙ КОНТУР СТРАНЫ (рисуется первым) -->
            <path id="l" fill="none" stroke="#ee8609" stroke-width="9" d="m1592.6 873.6 2.1 3.6v.1l1.7 2.8q1.6 2.7 4.9 3.4l4 .6c2.5.4 5-.9 6-3.1q2.1-3.6 6-4.7l4.3-1a10 10 0 0 1 3.3-.1l13.5 1.5a5 5 0 0 1 4.3 5v.5q.1 3.7 2.6 6.6l1.8 2q1.8 2.3 2.4 5l.6 3.2a10 10 0 0 0 2 4.5l.3.4q2 2.3 4.9 2.4h5.5a10 10 0 0 0 6.2-2.2l6.5-5.1a10 10 0 0 1 2.8-1.5l15.3-5.6a10 10 0 0 1 9.8 1.8l4.8 4a10 10 0 0 0 6.4 2.3h5.7q2 0 3.7.7l10.6 4.3a5 5 0 0 1 3.2 4.6v11.6q0 2.3-1 4.3l-6.5 13.5a10 10 0 0 0 2 11.5l6 5.7a10 10 0 0 0 14.2-.3l5.7-6a10 10 0 0 1 3-2.2l8.5-4a9 9 0 0 1 7.5 0c2.2 1 4.7.2 5.9-1.8l4.8-8.3a10 10 0 0 1 7-4.9l7.5-1.2a10 10 0 0 1 5.5.6l6.4 2.6c3.3 1.4 7.2.8 10-1.6l1.6-1.4a10 10 0 0 1 6.6-2.5h2.4a10 10 0 0 1 8 4.2l2 2.8a10 10 0 0 0 6.9 4.1l7.5 1a10 10 0 0 1 8.4 7.5l.3 1.1c.9 3.5 4 5.9 7.5 5.9s6.6 2.3 7.5 5.8l3.3 12.9a2.8 2.8 0 0 0 4.2 1.6 3 3 0 0 1 4.6 1.6l1.9 5.2a5.7 5.7 0 0 0 8.6 2.7l2.7-2c2-1.4 4.8-1.3 6.8.1q3.3 2.6 3.4 6.8v4.3a10 10 0 0 1-1.2 4.7l-.9 1.7a5 5 0 0 0 1.1 6.3 3.2 3.2 0 0 1-.4 5l-1 .8a6 6 0 0 0-2.2 7.8l2 4.4a10 10 0 0 1-1.4 10.6l-6.2 7.4a10 10 0 0 0-2.3 6.4v3.2c0 2.8 1.7 5.4 4.3 6.5a10 10 0 0 1 5.5 6.3l2.5 8 .5 1.3 4.5 9.4c1.2 2.6 1 5.6-.4 8-1.4 2.3-1 5.2.8 7.1l1 1a3.3 3.3 0 0 1-1.6 5.6l-2.6.6a4.6 4.6 0 0 0-3 6.7 6 6 0 0 1-2.5 8.1l-7 3.4a9 9 0 0 0-4.7 7.8v2.6a10 10 0 0 1-1.5 5.1l-3.3 5.5a9.4 9.4 0 0 0 3 12.8l12.4 8 1.2.6 12.8 6a2.7 2.7 0 0 1 .6 4.5 2 2 0 0 0 1 3.5l17.7 3c3.2.6 5.5 3.4 5.5 6.6v.2a10 10 0 0 1-4.6 8.4l-3.4 2.2a10 10 0 0 0-4 5.2l-1.2 3.3c-1.3 3.8.3 8 3.8 10l3.7 2.2q2.5 1.5 3.9 3.9l4 7.2.9 2.7 3.4 15.9.1.4 2.7 10.3a10 10 0 0 0 2.8 4.7l9.2 8.8q.7.8 1.7 1.3l17.8 11 1.6.8 12.4 4.8 1.5.8 8.5 5.2q1.5.8 3.2 1.2l8.3 1.7c3.4.7 5.6 3.9 5 7.2l-1 5.7v.6l-1.6 13.7a10 10 0 0 1-1 3.3l-5.6 11.4v.1l-5.5 11.4a5 5 0 0 0 2.7 6.7l2.1.8q3 1 5.9.3l11-2.7 2.5-.3h14q1.3 0 2.4.3l12.7 3q1.9.4 3.5 1.6l8 5.6 1.3 1.1 2.2 2.3a8 8 0 0 0 6.9 2l1.5-.3c3.3-.7 6.8.7 8.7 3.5l.4.6a5.3 5.3 0 0 1-1.7 7.7 8 8 0 0 0-3.7 8.5l1.4 5.2a10 10 0 0 0 1.4 3l8 11.8q1 1.6 2.6 2.7l17.7 12a10 10 0 0 1 4.4 8.2v5.7q0 1-.2 2l-.9 4.5a9 9 0 0 1-6.5 7l-10 3a10 10 0 0 0-4.1 2.5l-8.6 8.4a10 10 0 0 0-2.4 3.8l-2.4 6.7a8 8 0 0 1-7.5 5.3c-3.4 0-6.4 2.1-7.6 5.3l-.3.7a10 10 0 0 1-6.4 6l-6.6 2a10 10 0 0 0-3.1 1.6l-5.3 4a10 10 0 0 1-9.8 1.3l-6.8-2.8a6 6 0 0 0-5.2.5c-1.5.9-3.4.8-4.9-.2l-2.8-2a10 10 0 0 0-5.7-1.8h-.1q-3.2-.2-4.1-3.2l-2-7.2a10 10 0 0 0-5-6.2l-10-5.3a8 8 0 0 0-8.7.8l-.3.4a10 10 0 0 1-8.2 2l-7.4-1.4a9 9 0 0 0-10 5.8l-1.4 4a10 10 0 0 0 0 6.5l1.1 3.4c.6 1.6-.1 3.5-1.6 4.3l-2 1.1-1.3 1-5.5 4.5a7 7 0 0 0-.5 10.5l5.7 5.8 1.6 2 5 8.8a10 10 0 0 0 3.7 3.7l10.6 6.1a10 10 0 0 1 4.6 6l2 6.8 2 7.4c.8 3.3-.6 6.8-3.5 8.5a6 6 0 0 0-2.4 8l2 3.8a10 10 0 0 1 .5 7.8l-.2.4c-.8 2.6 0 5.5 2.3 7.1l2.8 2.2a5 5 0 0 1 .5 7.2l-1.7 1.6a4 4 0 0 0-.6 5l.2.3c1 1.5.9 3.4-.2 4.8a5 5 0 0 0-.6 5.1l2 4.8.5 1.5 3.8 14.8a2 2 0 0 1-1.7 2.2 1.3 1.3 0 0 0-1 2l6.3 10.6 1 1.3 3.8 4.6a10 10 0 0 1 2.4 6.4v.6c0 2.6 1.5 4.9 4 6h.1c2.5 1 4.2 3.5 4.2 6.2v1c0 3-2.5 5.5-5.5 5.5H1999l-2.7-.3-7.4-2-2.4-1-3.9-2.3a10 10 0 0 0-10 0l-1.4.8a10 10 0 0 0-4.6 6.1l-1.3 4.9-.3.7-1.1 3.2a3.4 3.4 0 0 1-4.6 1.9l-9.9-4.6a10 10 0 0 1-3-2.3l-1.7-1.8a8 8 0 0 0-7.4-2.3l-10.7 2.4a9 9 0 0 0-7.2 7.7l-.5 3q-.5 3.2-2.7 5.5l-9.9 10-.8 1-5.7 7.5-.8.9-7 7.2a10 10 0 0 0-2.7 5l-1.6 8a10 10 0 0 1-2.3 4.6l-8.5 9.7-.5.6-5.8 7.6a10 10 0 0 0-1.7 3.5l-2.2 8q-.8 3 .3 6l5 13.6.3 1 3.8 15.9a10 10 0 0 0 2.2 4.2l3.9 4.5a10 10 0 0 1 .9 12l-4.3 6.5a10 10 0 0 1-6 4.3l-1.8.4a10 10 0 0 1-9-2.3l-10.6-9.7a10 10 0 0 1-2.8-4.4l-4.6-15a10 10 0 0 0-6.8-6.7l-20.1-5.9a10 10 0 0 0-5.4 0l-22 5.8a10 10 0 0 1-10.2-3l-2.2-2.7a9 9 0 0 0-9.5-2.7l-3.2 1a10 10 0 0 0-4.2 2.6l-8.2 8.4q-.8.7-1.4 1.8l-2.4 3.9a6.3 6.3 0 0 1-8.1 2.3l-.4-.2a8.5 8.5 0 0 0-9.8 1.6l-.8.8a5 5 0 0 1-8-1.6l-5.8-14-.5-1.6-3.5-15.4a10 10 0 0 0-2.3-4.5l-4.3-4.8a9.3 9.3 0 0 0-12.9-1l-6.3 5.4a10 10 0 0 1-6.5 2.3h-6.6a10 10 0 0 0-9.1 6l-6.6 14.7-.4 1.3-1.1 3.7a4.2 4.2 0 0 1-5.5 2.8l-1.5-.6a9 9 0 0 1-5.7-8.2v-8.3a10 10 0 0 0-7-9.6l-9.9-3a10 10 0 0 0-10.5 2.8l-2.2 2.5a6.3 6.3 0 0 1-10.4-1.7l-4-9a10 10 0 0 1-.8-4v-3.8a2.5 2.5 0 0 0-4.2-1.8l-9.1 9q-1.4 1.5-3.3 2.3l-16.2 6.6a10 10 0 0 1-10.6-2l-5.6-5.2-.5-.4-2.2-2.4a1.7 1.7 0 0 0-3 1l-1.9 13-.7 2.7-3.6 7.8a4.5 4.5 0 0 1-7.7 1l-1-1.2a10 10 0 0 1-1.3-10.2l.8-1.7a7.4 7.4 0 0 0-4.3-10l-9.3-3.3c-2.9-1-6.1-.2-8.2 2.1l-.4.5a10 10 0 0 1-7.5 3.4H1477a4 4 0 0 1-3.7-5.1l.6-2c.7-1.9 0-3.9-1.7-4.9a7 7 0 0 1-3-5l-1-7.4a10 10 0 0 0-9.9-8.8h-8.2a10 10 0 0 0-5.3 1.5l-6.4 4a10 10 0 0 1-9.2.7l-8.5-3.5a10 10 0 0 1-3-2l-8.4-7.9c-2-2-5-3-7.9-2.6l-10.8 1.1q-1.4.1-2.6.7l-4.7 1.8a8 8 0 0 1-9.7-3l-3.5-5a10 10 0 0 0-9.2-4.3l-10 .8a10 10 0 0 1-7.4-2.4l-9.3-8.1a10 10 0 0 0-9.5-2l-6.7 2q-3.7 1.2-7.2-.5l-10.1-4.8a4.5 4.5 0 0 0-6 2.2 6 6 0 0 1-6.5 3.4l-17.7-3.4a10 10 0 0 0-5.4.5l-6.2 2.3a10 10 0 0 1-7.7-.2l-16.6-7.6a10 10 0 0 0-6.9-.5l-16.3 4.5q-1.6.5-3 1.5l-5 3.3a10 10 0 0 1-7.5 1.6l-5.2-1-2-.2h-6.1c-3 0-5.9 1.5-7.6 4a6 6 0 0 1-7.2 2.2l-6.2-2.6a10 10 0 0 0-7.7 0l-4.6 2a10 10 0 0 1-3.8.7h-11.9a10 10 0 0 0-6.7 2.6l-3.8 3.4a10 10 0 0 0-2.9 4.8l-3.2 11.8v.3l-1.6 5.2a10 10 0 0 1-4.6 5.9l-9.7 5.5a10 10 0 0 0-2.4 2l-6.3 6.8-.8.8-5.4 4.7a10 10 0 0 1-9 2.1l-3.3-.8a10 10 0 0 1-6.2-4.9 9 9 0 0 0-6.5-4.8l-7.1-1.3a10 10 0 0 0-3.7 0l-4.9 1a8 8 0 0 0-6.5 7.8v2.8a10 10 0 0 1-2.5 6.6l-1.5 1.7a3.6 3.6 0 0 1-6.1-1.1l-2.4-6.4a10 10 0 0 1-.6-5.2l2.6-15.8.7-2.4 4-9q.6-1.3.7-2.8l2-17.4.2-.8 2.8-13.5.3-1.2 2.8-8.5c.8-2.3.7-5-.3-7.2l-5.1-11.4a10 10 0 0 0-1.5-2.4l-10.4-12.4a10 10 0 0 0-4.8-3.1l-8-2.4-1.3-.6-17.4-8.3a10 10 0 0 1-5.2-6l-1-3a10 10 0 0 1 .3-6.6l8.5-21.4a10 10 0 0 1 2.1-3.3l20.8-21.2.7-.7 13.8-11.6a10 10 0 0 1 6.4-2.3h9a10 10 0 0 0 6.5-2.4l15.6-13.4a10 10 0 0 0 3.5-7.6V1561l-.1-1.8-3.7-21.2a10 10 0 0 1 1-6.5l2.3-4.1a10 10 0 0 0-.5-10.3l-4.6-7a10 10 0 0 1-.6-9.9l3.5-7.1a10 10 0 0 0-.9-10.4l-7.6-10.3a10 10 0 0 1-1.5-2.9l-18.2-57.3v-.2l-14-41.9q-.6-1.5-.5-3.1V1354a10 10 0 0 0-.7-3.6l-5.2-13.4-.2-.7-1.8-5.7a2.4 2.4 0 0 1 3.5-2.7l9.3 5.6a10 10 0 0 0 10.5-.2l3.8-2.5a5 5 0 0 1 6.9 1.6 3.8 3.8 0 0 0 6 .6l3-3.2q1.5-1.7 3.7-2.5l2.3-.9c2.5-1 5.4 0 6.8 2.2a6 6 0 0 0 7 2.3l12.4-4.8q3.7-1.5 7.3 0l4.3 1.7 1.5.8 14.1 8.6a10 10 0 0 0 12-1.1l19.6-17.8a10 10 0 0 1 6.7-2.7h9.3q1.4 0 2.6-.3l4.9-1.3a6 6 0 0 0 4-7.6l-1.5-4.2a10 10 0 0 1 5.5-12.5l6.6-2.9q4-1.5 8 0l3.2 1.4a10 10 0 0 0 10.3-1.4l13-10.6a10 10 0 0 0 3.8-7.8v-1c0-3.2 2.5-5.7 5.7-5.7h6.6a10 10 0 0 0 4-.9l7.2-3.1a8 8 0 0 1 9.3 2.6l1 1.5a10 10 0 0 1 1.7 8l-1 4.7a10 10 0 0 0 4.2 10.5l4.2 2.8a10 10 0 0 0 9.1 1l5-2a10 10 0 0 0 5.9-6.3l1.2-3.9a10 10 0 0 0-.3-6.8l-3.7-8.8a10 10 0 0 0-4.6-5l-10.1-5.4a8 8 0 0 1-4.2-7v-2.3q0-2.4 1-4.5l12-23.4.6-1 8-12a10 10 0 0 0 1.3-8l-5-19.4a10 10 0 0 1-.2-3.7l2.2-17q.3-2.3 1.7-4.4l8.5-12.4a10 10 0 0 1 2.1-2.3l12.9-10a9 9 0 0 1 8-1.3 9 9 0 0 0 8.2-1.2l13.4-9.6a10 10 0 0 0 3.2-3.8l3.6-7.6a10 10 0 0 0 1-4.3v-4.2c0-3.8 2.7-7 6.4-7.7l9.5-1.6h.2l17.1-2.6 2-.5 12.6-4.7a10 10 0 0 0 5-4l7.9-12.6.1-.2 3.8-5.7a5.3 5.3 0 0 0-2.7-8l-11-3.8a10 10 0 0 0-5.5-.2l-7.5 1.7a10 10 0 0 1-7-1l-2.7-1.4a4.2 4.2 0 0 1-.4-7.2l2.2-1.6a10 10 0 0 0 4.3-8.1v-11.4a10 10 0 0 0-3.4-7.4l-1.3-1.2a4.6 4.6 0 0 1 .7-7.3l5.4-3.4c3-1.8 4.8-5 4.8-8.5v-8.3a10 10 0 0 1 3.4-7.6l.5-.4c2.3-2 5.7-2.4 8.4-1l1.7 1c3.5 2 8 .8 10-2.6l10.7-16.4a10 10 0 0 1 3.4-3.3l17.6-10a10 10 0 0 1 5-1.3h5.5a10 10 0 0 1 8.5 4.7l1 1.5c2.2 3.6 6.7 5 10.6 3.4l6.3-2.7q3.9-1.5 7.8 0l8.3 3.4c3.3 1.4 7 .8 9.8-1.4l1.5-1.2a10 10 0 0 0 3.6-6.2l1.7-10.7a10 10 0 0 1 2.3-5l10.9-12.5 4.8-5.5a10 10 0 0 0 2.5-6.6v-.2c0-2.5 1.2-4.9 3.2-6.3l4-2.7.5-.5 11.1-9 1.4-1 5.7-3.2a10 10 0 0 1 5-1.3h14.1c2.6 0 5 1.4 6.3 3.6Z"/>


<!-- НАЗВАНИЯ ГОРОДОВ (в самом низу, поверх всего) -->
<g id="all-cities-labels">

  <path id="c1"
  opacity="0"  
  transform="translate(1438 1200)" 
  fill="#eb7b08" 
  d="M6.2 104.7q-.7 0-.7-1l1-74q0-1 .8-1.1h9.1q1 0 1 .8L28.6 75l11.2-45.5q0-.8 1-.8h9q.9 0 .9 1l1 74.1q0 1-.8 1H45q-1 0-1-1l-.4-48.8v-7.5l.1-7.8A120 120 0 0 1 40 54L29.8 93.2q0 .8-1 .8h-.5q-.9 0-1-.8L16.8 53.8a207 207 0 0 1-3.3-14.2h-.2l.2 7.8v7.4l-.6 48.9q0 1-.8 1z M72.1 105.8q-5.3 0-7.5-3.4a21 21 0 0 1-2.1-10.8v-42q0-1 .8-1h6q.7 0 .7 1v41.9q0 4.2 1 5.6 1 1.5 3.2 1.4 3 0 5.8-2.4 2.7-2.3 5.3-6.2l.7 6.5q-3 4.1-6.5 6.7a12 12 0 0 1-7.4 2.7m13.5-.7q-.7 0-1-1a139 139 0 0 1-.5-10.7l-.6-.7v-43q0-1 1-1.1h5.7q.8 0 .8 1v41.5l.4 12.7q0 1.3-.7 1.3zM123.3 105.1q-.8 0-.8-1V49.6q0-1 .8-1h5.8q1 0 1 1v54.5q0 1-1 1zm-21 0q-.8 0-.8-1V49.6q0-1 .8-1h6q.7 0 .7 1v54.5q0 1-.8 1zm6.2-25.4v-7.1h16v7z M155.7 105.5q-7.8 0-11.5-4.7t-3.7-14.5V66.7q0-9.7 3.7-14.4t11.5-4.7q4.8 0 8 2t4.8 5.7 1.2 9q0 1.3-1 1.3h-5.4q-.4 0-.7-.3v-.7q.1-4.5-1.5-7.2-1.8-2.6-5.4-2.6-4 0-5.9 2.7-1.8 2.8-1.8 9.4v19.3q0 6.4 1.8 9.2t6 2.8q3.4 0 5.1-2.4 1.7-2.3 1.4-7.2 0-1.2 1-1.2h5.4q1 0 1 1 0 8.6-3.5 12.8-3.4 4.3-10.5 4.3M209 103.7q.4 1.3-.7 1.3h-6.4q-.7 0-1-.8l-10.2-26H186V104q0 1-.8 1h-5.9q-.8 0-.8-1V26.6q0-1 .8-1h6q.7 0 .7 1v44.7h4.7l9-22.2q.2-.6 1-.6h6.5q.4 0 .6.4l-.1.8-10.5 24.1z" />

  <path id="c2" 
  opacity="0"
  transform="translate(1624 1036)"
  fill="#eb7b08" 
  d="M4.6 64.9q-.7 0-.7-.7v-46q0-.6.7-.7h6.9q6 0 8.7 2.9 2.8 2.9 2.8 8.7 0 3.9-1.3 6.5a10 10 0 0 1-3.8 4.2v.1q3 1 4.8 4 1.6 3 1.6 7.7 0 6.5-3 9.9-3 3.3-8.7 3.4zm4.3-4.6h3.8q3.6 0 5.4-2.2t1.8-6.9q0-4.5-1.7-6.6t-5.3-2H9zm0-21.7h3.5q3 0 4.6-2.1 1.6-2.2 1.6-6.3T17 24.3t-4.9-1.8H9zM35.9 65q-3.3 0-4.7-2a13 13 0 0 1-1.3-6.7V30.2q0-.6.5-.7h3.7q.5 0 .5.7v26q0 2.6.6 3.5t2 .8q1.9 0 3.6-1.4 1.7-1.5 3.3-4l.4 4.1a21 21 0 0 1-4 4.2 7 7 0 0 1-4.6 1.7m8.3-.3q-.4 0-.6-.7l-.3-6.6-.4-.5V30.2q0-.6.6-.7H47q.5 0 .5.7V56l.2 7.9q.1.8-.4.8z M54.6 65q-.5 0-.5-.6V38.6l-.2-7.8q0-.9.4-.8h3.4q.4 0 .4.6l.2 1.8v1.8a18 18 0 0 1 3.8-3.4 7 7 0 0 1 4-1.3 5 5 0 0 1 3.4 1.2 6 6 0 0 1 1.9 3.5q1.8-2.2 3.6-3.4a7 7 0 0 1 4.1-1.3q2.7 0 4.1 2 1.5 2.1 1.5 6v27q0 .6-.5.6h-3.7q-.5 0-.5-.7V38.1q0-2-.7-3.1-.6-1-2-1-1.2 0-2.7 1-1.3 1.2-2.8 3v26.4q0 .7-.5.7h-3.7q-.6 0-.5-.7V38.1q0-2-.7-3.1-.6-1-2-1t-2.7 1q-1.4 1.2-2.9 3v26.4q0 .7-.5.7z M100.4 65.5q-4.9 0-7.2-3T91 53v-12q0-6 2.3-8.8t6.9-2.8 6.8 2.9q2.4 2.8 2.4 8.5V48q0 .6-.6.6H95.6V53q0 4.2 1.1 6.1t3.7 1.9q2.2 0 3.1-1.2 1-1.2 1-3.6-.2-.7.3-.7h3.5q.5 0 .5.6.1 4.5-2 7-2.2 2.4-6.4 2.4m-4.5-21.8h9v-3.2q0-3.7-1-5.3-1.2-1.7-3.5-1.7-2.4 0-3.4 1.7a10 10 0 0 0-1.1 5.3z M124 65.4q-4.5 0-6.8-2.8-2.3-2.9-2.3-9.2V32.8q0-5 1-7.8 1-3 3.2-4.5 1.5-1.2 3.4-2L126 17q2-.8 3.6-2.4h.4q.3 0 .3.3l1 3.5q0 .6-.2.9-1.2 1.1-2.8 1.8l-3.2 1.3q-1.5.6-3 1.7-1.6 1.3-2.1 3.1-.5 2-.5 5.1v21q0 3.9 1 5.7 1 2 3.5 1.9 2.4 0 3.5-1.9 1-1.8 1.1-5.7V40.8q0-2.5-.7-3.6-.7-1-2.1-1-1.8 0-3.4 1.3-1.8 1.4-3.4 3.6l-.4-4.1q2.1-2.5 4.2-4 2-1.4 4.5-1.4 3 0 4.6 2.1 1.5 2 1.5 6.7l-.1 13q0 6-2.4 9-2.2 3-7 3M148.4 65.5q-4.9 0-7.2-2.9-2.3-3-2.3-9V41.4q0-6 2.3-9 2.4-2.9 7.2-2.9 3 0 5 1.3 2 1.2 3 3.5.8 2.4.6 5.6 0 .9-.5.8H153l-.4-.1V40q0-2.9-1-4.4-1-1.7-3.3-1.7-2.6 0-3.7 1.7-1 1.7-1.1 5.8v12q0 4 1.1 5.7t3.7 1.8q2.2 0 3.2-1.5 1-1.4.9-4.5 0-.7.6-.7h3.4q.5 0 .5.6 0 5.3-2 8-2.2 2.6-6.6 2.6M181.8 64.1q.2.8-.4.8h-4q-.3 0-.6-.5l-6.3-16.2h-2.9v16q0 .7-.5.7h-3.7q-.5 0-.5-.7v-48q0-.6.5-.7h3.7q.5 0 .5.7v27.7h2.9l5.6-13.8q0-.3.6-.3h4q.4 0 .4.2v.5l-6.6 15z" />


  <path id="c3" 
  opacity="0"
  transform="translate(1808 1347)"
  fill="#eb7b08" 
  d="M4.4 64.5q-.5 0-.5-.6l.6-46q0-.7.6-.7h5.6q.6 0 .7.5L18.2 46l7-28.3q0-.5.6-.5h5.7q.5 0 .5.7l.6 46q0 .6-.5.6h-3.6q-.6 0-.6-.6l-.3-30.4V29l.1-4.8a75 75 0 0 1-2.2 8.9L19 57.4q0 .5-.6.5H18q-.4 0-.6-.5L11 32.9l-2-8.8h-.1l.1 4.8v4.6l-.3 30.4q0 .6-.5.6z M48.4 65.2q-4.8 0-7.2-2.9-2.3-2.8-2.3-8.7V40.9q0-6 2.3-8.8 2.4-3 7.2-2.9 4.8 0 7.2 2.9 2.3 2.8 2.3 8.8v12.7q0 6-2.3 8.7-2.4 3-7.2 2.9m.3-5q2.6 0 3.7-1.7 1-1.7 1-5.5V40.6q0-4-1-5.6-1.2-1.8-3.7-1.8-2.6 0-3.6 1.8-1.2 1.7-1.2 5.6V53q0 3.9 1.2 5.5t3.6 1.7 M71.5 65.2q-4.3 0-6.5-2.1-2-2.2-2-6.5 0-3.2 1-5.6 1.1-2.4 3.3-4.2l4.8-3.5q1.5-1.2 2.3-2.5.6-1.4.6-3.1 0-4-3.5-4-2 0-2.8 1.2t-.8 3.5q0 .7-.5.7h-3.3q-.6 0-.7-.7-.3-4.2 1.9-6.7t6.5-2.5q3.8 0 5.9 2.2 2 2.1 2 6.3 0 3-1 5.2-1 2-3.5 4l-4.5 3.4q-1.5 1.2-2.3 2.6t-.8 3.5q0 2.3 1 3.3t3 1q2.2 0 3.1-1.3 1-1.2.9-4 0-.6.5-.6h3.5q.3 0 .5.6.3 4.8-2 7.3t-6.6 2.5 M91 65.8q-3.4 0-4.7-2.2a13 13 0 0 1-1.4-6.6V30.9q0-.7.5-.7h3.7q.6 0 .5.7v26q0 2.6.6 3.4.7 1 2 1 2 0 3.6-1.5t3.3-4l.4 4.1a21 21 0 0 1-4 4.2 7 7 0 0 1-4.6 1.7m8.2-.5q-.4 0-.5-.6l-.4-6.7-.4-.4V30.9q0-.7.6-.7h3.6q.6 0 .5.7v25.8l.3 7.8q0 .8-.5.8z M107.4 65.3q-.6 0-.4-.8l7-33.3q.2-1 .8-1h4.4q.7 0 1 1l7 33.4q0 .7-.4.7H123q-.6 0-.6-.5l-3.9-20-1.5-9.6a109 109 0 0 1-1.7 9.5l-3.8 20.1q0 .6-.5.5z M139.4 65.2q-4.8 0-7.2-3-2.3-3-2.3-9.4v-12q0-6 2.3-8.8 2.4-2.8 7-2.8 4.4 0 6.7 2.9 2.4 2.8 2.4 8.5v7.1q0 .6-.5.6h-13.2v4.4q0 4.2 1.2 6 1.1 2 3.6 2 2.1 0 3.2-1.2 1-1.2.8-3.6 0-.7.5-.7h3.4q.6 0 .6.5 0 4.5-2.1 7-2.2 2.5-6.4 2.5m-4.5-21.8h9v-3.2q0-3.7-1-5.4-1-1.5-3.5-1.6-2.3 0-3.4 1.7a10 10 0 0 0-1 5.3zM163.3 65.4q-5.1 0-7.2-2.8-2.1-2.9-2.2-8.8v-28q0-5.3 2.3-8 2.3-2.6 6.7-2.6t6.5 2.5q2 2.4 2 8a19 19 0 0 1-1 7 8 8 0 0 1-3.2 4q2.7.4 4.1 2.6t1.4 6.3v8q0 5.7-2.3 8.8-2.4 3-7.1 3m.2-4.2q2.6 0 3.7-1.8t1.1-5.5v-8q0-3.1-1-4.4-.8-1.3-3-1.3-1.2 0-2.6.5t-2.8 1V54q0 3.8 1 5.5t3.6 1.7m-4.6-23.6 3-1q2.6-.9 3.9-3.3t1.3-6.5q0-3.6-1-5.1t-3-1.5-3.2 1.4-1 4.3z" />


  <path id="c4" 
  opacity="0"
  transform="translate(1827 1550)"
  fill="#eb7b08" 
  d="M4.4 65q-.5 0-.5-.7v-46q0-.6.4-.6h15.3q.5 0 .5.6v3.3q0 .6-.5.6h-11v42.1q0 .7-.5.7z M29.3 65.7q-4.8 0-7.1-2.9-2.4-2.8-2.3-8.8V41.4q0-6 2.3-8.9 2.3-2.8 7.1-2.8 4.9 0 7.2 2.8 2.3 3 2.3 8.9V54q0 6-2.3 8.8-2.4 3-7.2 2.9m.3-5q2.6 0 3.7-1.7 1-1.7 1.1-5.5V41q0-3.9-1.1-5.6t-3.7-1.7-3.6 1.7-1.1 5.6v12.5q0 3.8 1.1 5.5 1.2 1.5 3.6 1.6 M45.4 64.8q-.6 0-.5-.7l.3-33.8q0-.6.5-.6h4.5q.4 0 .6.5L56 50l5.4-19.8q0-.6.6-.5h4.4q.5 0 .5.6l.4 33.8q0 .7-.5.7h-3.5q-.5 0-.5-.7V48.8a122 122 0 0 1 .7-12.8h-.2L61 45.1l-4.3 14.3q0 .3-.2.3l-.5.1h-.3l-.3-.4L51.2 45a99 99 0 0 1-2.3-9h-.1l.5 12.7V64q0 .7-.5.7z M82.3 65.7q-4.8 0-7.1-3-2.3-3.1-2.3-9.5v-12q0-6 2.3-8.8 2.3-2.7 6.8-2.7t6.9 2.8q2.3 3 2.3 8.5v7.2q0 .6-.5.6H77.6v4.4q0 4.2 1 6 1.2 2 3.7 1.9 2.2 0 3.2-1.2t.9-3.6q-.2-.7.4-.7h3.5q.5 0 .5.6 0 4.5-2 7-2.3 2.5-6.5 2.5M78 43.9h9v-3.3q0-3.6-1.1-5.3-1-1.5-3.5-1.6-2.2 0-3.3 1.6a10 10 0 0 0-1.1 5.3z M94.3 64.8q-.6 0-.4-.8l7-33.4q.2-1 .9-1h4.4q.6 0 .8 1l7 33.5q.1.7-.3.7H110q-.4 0-.6-.5l-3.9-20.1-1.5-9.5a109 109 0 0 1-1.7 9.4l-3.8 20.2q0 .5-.5.5zM126.6 65.2q-4.4 0-6.6-2.5t-2.1-7.9V30.3q0-.6.5-.6h3.7q.5 0 .5.6V55q0 3 1 4.3.9 1.5 3 1.4 2.2 0 3.2-1.4t1-4.3v-6.7q0-2.5-.9-3.5t-2-1q-1.6 0-3.1 1.3-1.6 1.2-2.7 2.8v-4.4c1-1 2-2 3.3-3a7 7 0 0 1 4-1.2q2.8 0 4.4 2.1t1.6 7v6.4q0 5.4-2.1 8-2.2 2.4-6.7 2.4" />

  <path id="c5" 
  opacity="0"
  transform="translate(1077 1640)"
  fill="#eb7b08" 
  d="M5.3 65q-.6 0-.6-.7v-46q0-.6.6-.6h16q.4 0 .4.6v3.3q0 .6-.6.6H9.4v14h3.3q6.2 0 9.1 3.5 3 3.4 3 10.6 0 5-1.3 8.3a10 10 0 0 1-4 4.8 13 13 0 0 1-6.8 1.6zm4.4-4.6H13q4 0 5.8-2.4t1.7-7.8q0-5.2-1.7-7.3-1.7-2.2-5.8-2.2H9.7zM41.2 65.7q-1.8 0-3.6-.6t-3.2-1.4v-4.4l2.6 1.2q1.3.6 3 .6a3 3 0 0 0 2.8-1.7q1-1.7 1-5.5V38.8q0-2.6-.8-3.6-.6-1-2.1-1-1.8 0-3.4 1.4a21 21 0 0 0-3.4 3.8l-.4-4.2q2.1-2.7 4.1-4 2.2-1.5 4.5-1.5 3 0 4.6 2 1.5 2.1 1.5 6.6V54q0 5.9-1.8 8.8a6 6 0 0 1-5.4 2.9M30.5 78.2q-.6 0-.5-.7V37.8l-.2-7.4q-.1-.7.4-.7h3q.7 0 .7.6l.3 2 .1 2.8.4 1.7v40.7q0 .7-.5.7zM63.2 65.7q-4.8 0-7.1-3-2.4-3.1-2.4-9.5v-12q0-6 2.4-8.8 2.3-2.7 6.8-2.7t6.8 2.8q2.4 3 2.4 8.5v7.2q0 .6-.5.6H58.4v4.4q0 4.2 1.2 6 1.1 2 3.6 1.9 2.2 0 3.2-1.2t.9-3.6q-.2-.7.4-.7h3.5q.5 0 .5.6 0 4.5-2.1 7-2.2 2.5-6.4 2.5m-4.5-21.8h9v-3.3q0-3.6-1-5.3-1-1.5-3.5-1.6-2.2 0-3.4 1.6a10 10 0 0 0-1 5.3z M87.2 65.7q-4.8 0-7.1-3-2.4-3-2.4-9V41.5q0-6 2.4-8.9 2.3-3 7.1-3 3 0 5 1.3 2 1.2 3 3.5.9 2.4.7 5.6 0 .9-.6.9h-3.4q-.3 0-.4-.2v-.5q.1-2.8-1-4.4-1-1.6-3.3-1.6-2.5 0-3.6 1.7t-1.2 5.8v12q0 3.9 1.2 5.7 1.1 1.7 3.6 1.7 2.2 0 3.3-1.4 1-1.5.8-4.5 0-.8.6-.8h3.4q.6 0 .6.6 0 5.4-2.2 8-2.1 2.7-6.5 2.7M101.5 65.2q-.5 0-.5-.6V38.8l-.2-7.9q-.1-.8.4-.8h3.3q.4 0 .4.7l.2 1.8.1 1.8a18 18 0 0 1 3.8-3.5 7 7 0 0 1 4-1.2 5 5 0 0 1 3.4 1.1 6 6 0 0 1 1.8 3.5q1.9-2.1 3.7-3.4a7 7 0 0 1 4-1.2q2.7 0 4.2 2 1.4 2 1.4 5.9v27q0 .6-.5.6h-3.7q-.5 0-.5-.6V38.2q0-2.1-.6-3-.6-1-2-1t-2.7 1q-1.5 1-2.9 3v26.4q0 .6-.5.6h-3.7q-.5 0-.5-.6V38.2q0-2.1-.6-3-.8-1-2-1-1.4 0-2.7 1-1.5 1-3 3v26.4q0 .6-.4.6z" />


  <path id="c6" 
  opacity="0"
  transform="translate(1096 1374)"
  fill="#eb7b08" 
  d="M5 65q-.6 0-.5-.7v-46q0-.6.4-.6h15.3q.5 0 .5.6v3.3q0 .6-.5.6h-11v42.1q0 .7-.5.7z M32 65.7q-2 0-3.7-.6t-3.2-1.4v-4.4l2.6 1.2q1.5.6 3 .6a3 3 0 0 0 2.8-1.7q1-1.7 1-5.5V38.8q0-2.6-.7-3.6t-2.2-1q-1.7 0-3.4 1.4a21 21 0 0 0-3.4 3.8l-.3-4.2q2-2.7 4-4 2.1-1.5 4.6-1.5 3 0 4.5 2 1.5 2.1 1.5 6.6V54q0 5.9-1.8 8.8a6 6 0 0 1-5.4 2.9M21.1 78.2q-.5 0-.5-.7V37.8l-.2-7.4q-.1-.7.4-.7H24q.6 0 .7.6l.2 2 .1 2.8.4 1.7v40.7q0 .7-.5.7zM54 65.7q-5 0-7.2-2.9-2.3-2.8-2.3-8.8V41.4q0-6 2.3-8.9 2.4-2.8 7.1-2.8 4.9 0 7.2 2.8 2.3 3 2.3 8.9V54q0 6-2.3 8.8-2.4 3-7.2 2.9m.2-5q2.6 0 3.7-1.7 1-1.7 1.1-5.5V41q0-3.9-1.1-5.6t-3.7-1.7-3.6 1.7-1.1 5.6v12.5q0 3.8 1.1 5.5 1.2 1.5 3.6 1.6M77.5 79q-4.6 0-6.6-2.6a9 9 0 0 1-1.7-6.4q0-.5.3-.6h3.7q.5 0 .5.6 0 2.2.8 3.4.9 1 3 1 2.4 0 3.4-1.4 1-1.5 1-4.7V60a17 17 0 0 1-3.6 3q-1.8 1-3.7 1-3.2 0-4.6-2.1-1.5-2.1-1.5-6.6v-14q0-6.1 2.2-9a8 8 0 0 1 6.4-2.6q2.4 0 4.7.5l4.9.8v36.9q0 5-2.2 8-2 3.1-7 3.1m-1-20a5 5 0 0 0 2.8-1.1q1.5-1 3-3V34.4l-4.4-.6q-2.3 0-3.4 1.7-1 1.8-1 5.4v13.7q0 2.4.7 3.4t2.2 1M107 64.8q-.6 0-.5-.7V30.3q0-.6.5-.6h3.6q.6 0 .6.6v33.8q0 .7-.6.7zm-13 0q-.6 0-.5-.7V30.3q0-.6.5-.6h3.7q.5 0 .5.6v33.8q0 .7-.5.7zM97.5 49v-4.4h10V49zM127 65.7q-5 0-7.2-2.9-2.3-2.8-2.3-8.8V41.4q0-6 2.3-8.9 2.3-2.8 7.1-2.8 4.9 0 7.2 2.8 2.3 3 2.3 8.9V54q0 6-2.3 8.8-2.4 3-7.2 2.9m.2-5q2.6 0 3.7-1.7 1-1.7 1.1-5.5V41q0-3.9-1.1-5.6t-3.7-1.7-3.6 1.7-1.1 5.6v12.5q0 3.8 1.1 5.5 1.2 1.5 3.6 1.6" />




</g>
</svg>