<svg xmlns="http://www.w3.org" width="32" height="32" viewBox="0 0 32 32">
    <path fill="#979797" d="m32 16-5.4339623 16h-6.1981132l4.0754717-12.0412371-1.408177-.0036318-1.1674091.0001657c-.2161838.0005346-.4007163.0014052-.5535974.0026119l-.6678427.0072495c-.5277904.0079102-1.0396927.024603-1.2973134.0760789-.8596224.1717635-1.2529428.5572686-1.6132075.9072165-.8490566.8247423-2.264151 4.5085911-4.2452831 11.0515464h-8.490566l1.35849057-3.9587629h2.29245283l.18372019-.6275826c.68430906-2.3250346 1.21098281-3.9685876 1.58002111-4.9306587l.3397092-.8784604c.3986787-1.0253364.7654555-1.9192209 1.2078703-2.6354632l.1244081-.2006173c.1696576-.2713511.354469-.5533938.5548371-.7890735.4744588-.5580741 1.0181837-.9872424 1.5283019-1.3195876.5335128-.3475869 1.3825694-.5675182 2.5471698-.6597938z"/>
   <path fill="#EB7B08" d="M11.1 0L8 9.3h.2L21 0h6l-5.1 15h-6l3.1-9.3L6 15H0l5.2-15z"/>
</svg>
