<svg xmlns="http://www.w3.org/2000/svg" width="1440" height="190" viewBox="0 0 1440 190" role="img" aria-labelledby="svg-title svg-desc">
  <title id="svg-title">Логотип Инфолифт</title>
  <desc id="svg-desc">Логотип компании Инфолифт, Гомель, Беларусь, реклама в лифтах Гомель, размещение рекламы в лифтах Гомель</desc>
  <!-- НАСТРОЙКИ ЦВЕТОВ И ГРАДИЕНТОВ -->
  <defs>
    <linearGradient id="a" x1="50%" x2="50%" y1="0%" y2="100%"><stop offset="43.586%" stop-color="#F7B213"/><stop offset="100%" stop-color="#EB7B08"/></linearGradient>
    <linearGradient id="b" x1="50%" x2="50%" y1="0%" y2="100%"><stop offset="0%" stop-color="#F7B213"/><stop offset="100%" stop-color="#EB7B08"/></linearGradient>
    <linearGradient id="c" x1="50%" x2="50%" y1="0%" y2="100%"><stop offset="0%" stop-color="#C8C8C8"/><stop offset="100%" stop-color="#979797"/></linearGradient>
  </defs>
  <g fill="none">
    <!-- ГРАФИКА: ЗАКРУГЛЕННАЯ РАМКА (Градиент A) -->
    <path stroke="url(#a)" stroke-linejoin="square" stroke-width="14.4" d="M1409.82044,11.6219453 L1411.35575,12.4101038 C1418.37115,16.161982 1423.83802,21.6288469 1427.5899,28.64425 C1431.9698,36.8339563 1433.5,44.757985 1433.5,64.09713 L1433.5,125.90287 C1433.5,145.242015 1431.9698,153.166044 1427.5899,161.35575 C1423.83802,168.371153 1418.37115,173.838018 1411.35575,177.589897 C1403.16604,181.969799 1395.24202,183.5 1375.90287,183.5 L64.09713,183.5 C44.757985,183.5 36.8339563,181.969799 28.64425,177.589897 C21.6288469,173.838018 16.161982,168.371153 12.4101034,161.35575 C8.03020053,153.166044 6.5,145.242015 6.5,125.90287 L6.5,64.09713 C6.5,44.757985 8.03020053,36.8339563 12.4101034,28.64425 C16.161982,21.6288469 21.6288469,16.161982 28.64425,12.4101034 C36.8339563,8.03020053 44.757985,6.5 64.09713,6.5 L1375.90287,6.5 C1394.03332,6.5 1402.13095,7.84490281 1409.82044,11.6219453 Z"/>
    <!-- ГРАФИКА: ПЕРВАЯ ГРУППА БУКВ (Оранжевый градиент B) -->
    <path fill="url(#b)" fill-rule="evenodd" stroke="#EB7B08" d="M125,47 L105.5,107 L106.5,107 L186,47 L223.5,47 L192,144 L154.5,144 L174,84 L93.5,144 L56,144 L88.5,47 L125,47 Z M505,34 L500.5,47 L566.5,47 L534.5,144 L469.5,144 L465,157 L428,157 L432.5,144 L366,144 L398,47 L463.5,47 L467.5,34 L505,34 Z M281,47 L268,83.5 L329,83.5 L341.5,47 L379,47 L346.5,144 L309,144 L321.5,107.5 L261,107.5 L248.5,144 L211,144 L243,47 L281,47 Z M719.5,47 L687,144 L553,144 L586,47 L719.5,47 Z M521,72 L493.314607,72 L477,120 L505.179775,120 L521,72 Z M456,72 L428.314607,72 L412,120 L440.674157,120 L456,72 Z M674.5,72 L614,72 L598,119 L658,119 L674.5,72 Z"/>
    <!-- ГРАФИКА: ВТОРАЯ ГРУППА БУКВ (Серый градиент C) -->
    <path fill="url(#c)" fill-rule="evenodd" stroke="#979797" d="M924,47 L904.5,107 L905.5,107 L985,47 L1022.5,47 L991,144 L953.5,144 L973,84 L892.5,144 L855,144 L887.5,47 L924,47 Z M867,46 L835,143 L798.5,143 L822.5,70 L814.207402,69.9779824 L807.33266,69.9789871 C806.059577,69.9822278 804.972886,69.9875059 804.072586,69.9948212 L800.139734,70.0387719 C797.031635,70.086727 794.0171,70.1879275 792.5,70.5 C787.437779,71.541316 785.121559,73.8784409 783,76 C778,81 769.666667,103.333333 758,143 L708,143 L716,119 L729.5,119 L730.581908,115.195281 C734.611728,101.099758 737.713251,91.1357183 739.886477,85.3031618 L741.886986,79.9774961 C744.234761,73.761394 746.394669,68.342219 749,64 L749.732626,62.783758 C750.731721,61.1386916 751.820054,59.428808 753,58 C755.794035,54.6166753 758.995971,52.0148428 762,50 C765.141798,47.8927541 770.141798,46.5594208 777,46 L867,46 Z M1148,34 L1143.5,47 L1209.5,47 L1177.5,144 L1112.5,144 L1108,157 L1071,157 L1075.5,144 L1009,144 L1041,47 L1106.5,47 L1110.5,34 L1148,34 Z M1383,47 L1358.5,120 L1378.5,120 L1370,144 L1314,144 L1337.5,72 L1317,72 L1293.5,144 L1257,144 L1280.5,72 L1257.5,72 L1234,144 L1197,144 L1228.5,47 L1383,47 Z M1164,72 L1136.31461,72 L1120,120 L1148.17978,120 L1164,72 Z M1099,72 L1071.31461,72 L1055,120 L1083.67416,120 L1099,72 Z"/></g>
</svg>