<svg width="20" height="17" viewBox="0 0 20 17">
    <path d="M1.37 7.13c5.37-2.34 8.95-3.88 10.74-4.62 5.12-2.13 6.18-2.5 6.87-2.51 0.25 0 0.5 0.07 0.71 0.21 0.15 0.13 0.24 0.31 0.26 0.5 0.04 0.24 0.05 0.49 0.03 0.73-0.27 2.92-1.47 9.98-2.08 13.24-0.26 1.37-0.77 1.84-1.26 1.89-1.07 0.1-1.89-0.7-2.92-1.38-1.62-1.06-2.54-1.72-4.11-2.76-1.82-1.2-0.64-1.86 0.4-2.93 0.27-0.28 4.98-4.57 5.07-4.95 0.02-0.12-0.01-0.24-0.09-0.33-0.11-0.07-0.25-0.08-0.38-0.03-0.16 0.03-2.75 1.74-7.77 5.12-0.73 0.51-1.4 0.75-2 0.74-0.66-0.02-1.92-0.37-2.86-0.69-1.15-0.37-2.06-0.57-1.99-1.2 0.04-0.33 0.5-0.67 1.37-1.02z" />
</svg>
