<svg width="20" height="20" viewBox="0 0 20 20">
    <path d="M0 20l1.41-5.14C-0.83 10.97-0.18 6.07 3.01 2.9 6.2-0.27 11.12-0.91 15.02 1.33c3.9 2.25 5.8 6.82 4.64 11.15s-5.11 7.35-9.62 7.35c-1.66 0-3.3-0.42-4.76-1.21L0 20zm5.47-3.15l0.3 0.19c1.28 0.75 2.73 1.15 4.22 1.15 3.78 0 7.08-2.54 8.02-6.18 0.94-3.64-0.71-7.45-4.01-9.27-3.3-1.82-7.42-1.18-10.02 1.55s-3.01 6.86-1 10.05l0.19 0.31-0.84 3.04 3.14-0.84zM15.03 12.2c-0.06-0.1-0.23-0.16-0.48-0.29s-1.22-0.6-1.45-0.68-0.39-0.12-0.56 0.13-0.47 0.55-0.61 0.72c-0.14 0.17-0.29 0.19-0.54 0.06-0.73-0.29-1.4-0.71-1.99-1.23-0.54-0.5-1.01-1.08-1.38-1.72-0.15-0.25-0.02-0.37 0.11-0.5s0.25-0.26 0.38-0.41c0.1-0.12 0.18-0.26 0.24-0.4 0.07-0.15 0.06-0.31-0.02-0.44s-0.5-1.22-0.71-1.72c-0.21-0.5-0.41-0.42-0.56-0.43s-0.31-0.01-0.48-0.01c-0.26 0-0.5 0.11-0.67 0.31-0.56 0.53-0.88 1.27-0.87 2.05 0 1.22 0.89 2.4 1.02 2.56s1.63 2.5 4.12 3.57c0.46 0.2 0.94 0.37 1.42 0.52 0.51 0.15 1.05 0.18 1.57 0.09 0.48-0.07 1.47-0.6 1.68-1.18s0.21-1.09 0.15-1.19z" />
</svg>
