<svg xmlns="http://www.w3.org/2000/svg" xmlns:xlink="http://www.w3.org/1999/xlink" width="3000" height="3000" version="1.1">
  <defs>
    <path id="path-1" d="M0 0h3000v3000H0z"/>
  </defs>
  <g xlink:href="#path-1" id="artboard-lift" fill="none" fill-rule="evenodd" stroke="none" stroke-width="1">
    <g id="sizeGroup" stroke="#eb7b08" transform="translate(955.316 743.57)">
      <!-- <path id="s0" stroke-linejoin="round" stroke-width="12" d="M1350.973 37.43v836.899c0 19.882-16.118 36-36 36H715.307c-19.882 0-36-16.118-36-36V48.183c0-5.814-4.713-10.528-10.527-10.528s-10.527 4.714-10.527 10.528v826.146c0 19.882-16.117 36-36 36H35.683c-19.882 0-36-16.118-36-36V37.278l.008-.151.155-3.067.008-.153.015-.151C1.727 15.466 17.17 1.429 35.684 1.429h1279.289c19.882 0 36 16.118 36 36Z"/> -->
      <path id="s1" fill="#eb7b08" fill-opacity=".35" stroke-width="9" d="M29.684 43.43v824c0 6.627 5.372 12 12 12h579.161c6.628 0 12-5.373 12-12v-824c0-6.628-5.372-12-12-12H41.684c-6.628 0-12 5.372-12 12Z"/>
      <path id="s2" fill="#eb7b08" fill-opacity=".35" stroke-width="9" d="M705.684 465.43v402.655c0 6.627 5.372 12 12 12h592.846c6.627 0 12-5.373 12-12V465.429c0-6.627-5.373-12-12-12H717.684c-6.628 0-12 5.373-12 12Z"/>
      <path id="s3" fill="#eb7b08" fill-opacity=".35" stroke-width="9" d="M705.684 43.43v376.486c0 6.627 5.372 12 12 12H978.62c6.627 0 12-5.373 12-12V43.429c0-6.627-5.373-12-12-12H717.684c-6.628 0-12 5.373-12 12Z"/>
      <path id="s4" fill="#eb7b08" fill-opacity=".35" stroke-width="9" d="M1005.684 43.43v176.243c0 6.627 5.372 12 12 12h292.293c6.628 0 12-5.373 12-12V43.429c0-6.627-5.372-12-12-12h-292.293c-6.628 0-12 5.373-12 12Z"/>
    </g>
  </g>
</svg>
