<svg xmlns="http://www.w3.org/2000/svg" viewBox="0 0 3000 3000"><g id="artboard-city" fill="none" fill-opacity=".14" fill-rule="evenodd" stroke="none" stroke-width="1"><g id="d" fill="#ff9b00" stroke="#ff5100" stroke-width="7" transform="translate(987 847)"><path id="d1" d="M716.424 726.727c9.443-2.351 64.91-87.62 70.455-122.508 2.614-16.453-29.203-78.926-56.853-151.525-30.981-81.345-58.577-173.35-63.282-186.864-8.906-25.574-85.21 9.057-100.146 44.561s-3.371 284.421 23.192 333.826c26.564 49.404 117.192 84.862 126.634 82.51Z"/><path id="d2" d="M736.056 430.331c-28.5-97-1.5-197.5 29.5-239 17.042-22.814 140.157 51.115 138.5 68-3.68 37.5-45.5 164.5-69 192s-70.5 76-99-21Z"/><path id="d3" d="M937.26 269.502c8.2-1 54.5-75 56.5-100.71S804.933.402 767.26 0c-21.86-.23-26.322 43.554-19 90.002 5.297 33.594 19.909 73.013 23.5 77 4.034 4.477 51.429 15.936 87 38 79 49 74.165 65.029 78.5 64.5Z"/><path id="d4" d="M490.718 193.99c28.5-21-19.762-69.533-85-43.5-65.24 26.033-101 85.5-109 108s53.259 77 66.259 54.5c5.975-10.343 35.052-46.702 60.74-69 30.198-26.212 51.6-38.653 67-50Z"/><path id="d5" d="M415.737 268.621c-6.53 5.597-33.354 35.632-56 69-25.906 38.173-47.17 80.396-40.5 90 12.5 18 90.29 38.986 131.5 12 10.682-6.994-11.468-31.899-3-57 7.239-21.455 43.613-50.243 42-59-3.5-19-66.73-61.23-74-55Z"/><path id="d6" d="M334.03 643.955c-47.15-7.948-125.776 35.688-124 57 1.776 21.313 110.173 38.747 151 24s20.15-73.051-27-81Z"/><path id="d7" d="M268.873 801.219c-4.5-25-87.429-16.5-156.593-5s-100 81-108 99.5-13.387 113.274 67 92.5c44.5-11.5 97.592-63 131.533-112.5 27.145-39.59 68.095-63.196 66.06-74.5Z"/><path id="d8" d="M584.01 919.738c-18.972 48-174 122.01-220 122.01s-158.5-126.01-149.5-155.51 154.036-150.183 221-147.183c34.666 1.553 83.782 13.396 113 53.683 27.222 37.536 44.65 103.849 35.5 127Z"/><path id="d9" d="M852.064 1084.582c69 15.5 219 390 188 439.5s-329.938-23.5-345.5-90 88.5-365 157.5-349.5Z"/></g></g></svg>