<?xml version="1.0" encoding="UTF-8"?>
<svg width="596px" height="371px" viewBox="0 0 596 371" version="1.1" xmlns="http://www.w3.org/2000/svg" xmlns:xlink="http://www.w3.org/1999/xlink">
    <title>c1</title>
    <g id="artboard-country" stroke="none" stroke-width="1" fill="none" fill-rule="evenodd">
        <g transform="translate(-1046, -936)" fill="#EB7B08" id="g1">
            <g transform="translate(1331, 1108)">
                <g id="c1" transform="translate(101.51, 92.3988)" fill-rule="nonzero">
                    <path d="M6.1875,104.745 C5.7225,104.745 5.49,104.39625 5.49,103.69875 L6.42,29.6475 C6.42,28.95 6.73,28.60125 7.35,28.60125 L16.4175,28.60125 C17.0375,28.60125 17.38625,28.8725 17.46375,29.415 L28.5075,74.86875 L39.6675,29.415 C39.745,28.8725 40.09375,28.60125 40.71375,28.60125 L49.78125,28.60125 C50.32375,28.60125 50.595,28.95 50.595,29.6475 L51.64125,103.69875 C51.64125,104.39625 51.37,104.745 50.8275,104.745 L45.015,104.745 C44.395,104.745 44.085,104.39625 44.085,103.69875 L43.62,54.87375 C43.62,52.62625 43.62,50.14625 43.62,47.43375 C43.62,44.72125 43.65875,42.125 43.73625,39.645 L43.62,39.645 C43.155,42.0475 42.6125,44.45 41.9925,46.8525 C41.3725,49.255 40.7525,51.61875 40.1325,53.94375 L29.78625,93.23625 C29.70875,93.77875 29.36,94.05 28.74,94.05 L28.275,94.05 C27.7325,94.05 27.4225,93.77875 27.345,93.23625 L16.76625,53.8275 C16.14625,51.5025 15.565,49.158125 15.0225,46.794375 C14.48,44.430625 13.97625,42.0475 13.51125,39.645 L13.27875,39.645 C13.43375,42.125 13.51125,44.701875 13.51125,47.375625 C13.51125,50.049375 13.51125,52.51 13.51125,54.7575 L12.93,103.69875 C12.93,104.39625 12.65875,104.745 12.11625,104.745 L6.1875,104.745 Z" id="Path"></path>
                    <path d="M72.13875,105.79625 C68.57375,105.79625 66.074375,104.653125 64.640625,102.366875 C63.206875,100.080625 62.49,96.49625 62.49,91.61375 L62.49,49.6475 C62.49,48.95 62.76125,48.60125 63.30375,48.60125 L69.2325,48.60125 C69.775,48.60125 70.04625,48.95 70.04625,49.6475 L70.04625,91.4975 C70.04625,94.2875 70.375625,96.1475 71.034375,97.0775 C71.693125,98.0075 72.75875,98.4725 74.23125,98.4725 C76.24625,98.4725 78.164375,97.6975 79.985625,96.1475 C81.806875,94.5975 83.57,92.505 85.275,89.87 L85.9725,96.38 C83.9575,99.0925 81.7875,101.34 79.4625,103.1225 C77.1375,104.905 74.69625,105.79625 72.13875,105.79625 Z M85.5825,105.09875 C85.1175,105.09875 84.8075,104.75 84.6525,104.0525 C84.4975,102.425 84.361875,100.506875 84.245625,98.298125 C84.129375,96.089375 84.07125,94.4425 84.07125,93.3575 L83.49,92.66 L83.49,49.6475 C83.49,48.95 83.8,48.60125 84.42,48.60125 L90.2325,48.60125 C90.775,48.60125 91.04625,48.95 91.04625,49.6475 L91.04625,91.14875 C91.04625,94.40375 91.085,97.058125 91.1625,99.111875 C91.24,101.165625 91.3175,102.735 91.395,103.82 C91.4725,104.6725 91.24,105.09875 90.6975,105.09875 L85.5825,105.09875 Z" id="Shape"></path>
                    <path d="M123.30375,105.09875 C122.76125,105.09875 122.49,104.75 122.49,104.0525 L122.49,49.6475 C122.49,48.95 122.76125,48.60125 123.30375,48.60125 L129.11625,48.60125 C129.73625,48.60125 130.04625,48.95 130.04625,49.6475 L130.04625,104.0525 C130.04625,104.75 129.73625,105.09875 129.11625,105.09875 L123.30375,105.09875 Z M102.30375,105.09875 C101.76125,105.09875 101.49,104.75 101.49,104.0525 L101.49,49.6475 C101.49,48.95 101.76125,48.60125 102.30375,48.60125 L108.2325,48.60125 C108.775,48.60125 109.04625,48.95 109.04625,49.6475 L109.04625,104.0525 C109.04625,104.75 108.775,105.09875 108.2325,105.09875 L102.30375,105.09875 Z M108.49,79.6925 L108.49,72.60125 L124.5325,72.60125 L124.5325,79.6925 L108.49,79.6925 Z" id="Shape"></path>
                    <path d="M155.71875,105.49375 C150.52625,105.49375 146.69,103.924375 144.21,100.785625 C141.73,97.646875 140.49,92.8225 140.49,86.3125 L140.49,66.66625 C140.49,60.23375 141.73,55.448125 144.21,52.309375 C146.69,49.170625 150.52625,47.60125 155.71875,47.60125 C158.89625,47.60125 161.57,48.26 163.74,49.5775 C165.91,50.895 167.49875,52.79375 168.50625,55.27375 C169.51375,57.75375 169.90125,60.7375 169.66875,64.225 C169.66875,65.155 169.35875,65.62 168.73875,65.62 L163.275,65.62 C162.965,65.62 162.751875,65.523125 162.635625,65.329375 C162.519375,65.135625 162.5,64.88375 162.5775,64.57375 C162.7325,61.55125 162.22875,59.168125 161.06625,57.424375 C159.90375,55.680625 158.12125,54.80875 155.71875,54.80875 C153.00625,54.80875 151.049375,55.719375 149.848125,57.540625 C148.646875,59.361875 148.04625,62.48125 148.04625,66.89875 L148.04625,86.19625 C148.04625,90.45875 148.646875,93.52 149.848125,95.38 C151.049375,97.24 153.00625,98.17 155.71875,98.17 C158.12125,98.17 159.865,97.395 160.95,95.845 C162.035,94.295 162.5,91.8925 162.345,88.6375 C162.345,87.785 162.655,87.35875 163.275,87.35875 L168.73875,87.35875 C169.35875,87.35875 169.66875,87.7075 169.66875,88.405 C169.66875,94.0625 168.525625,98.325 166.239375,101.1925 C163.953125,104.06 160.44625,105.49375 155.71875,105.49375 Z" id="Path"></path>
                    <path d="M208.9475,103.72125 C209.2575,104.57375 209.025,105 208.25,105 L201.85625,105 C201.46875,105 201.12,104.72875 200.81,104.18625 L190.69625,78.14625 L186.04625,78.14625 L186.04625,103.95375 C186.04625,104.65125 185.775,105 185.2325,105 L179.30375,105 C178.76125,105 178.49,104.65125 178.49,103.95375 L178.49,26.6475 C178.49,25.95 178.76125,25.60125 179.30375,25.60125 L185.2325,25.60125 C185.775,25.60125 186.04625,25.95 186.04625,26.6475 L186.04625,71.2875 L190.69625,71.2875 L199.76375,49.08375 C199.84125,48.69625 200.15125,48.5025 200.69375,48.5025 L207.20375,48.5025 C207.51375,48.5025 207.7075,48.61875 207.785,48.85125 C207.8625,49.08375 207.82375,49.355 207.66875,49.665 L197.20625,73.845 L208.9475,103.72125 Z" id="Path"></path>
                    <path d="M-373.78,-224.39875 C-374.06,-224.39875 -374.2,-224.57875 -374.2,-224.93875 L-374.2,-263.15875 C-374.2,-263.51875 -374.06,-263.69875 -373.78,-263.69875 L-368.02,-263.69875 C-364.62,-263.69875 -362.13,-262.72875 -360.55,-260.78875 C-358.97,-258.84875 -358.18,-255.79875 -358.18,-251.63875 C-358.18,-247.75875 -358.98,-244.78875 -360.58,-242.72875 C-362.18,-240.66875 -364.54,-239.63875 -367.66,-239.63875 L-370.3,-239.63875 L-370.3,-224.93875 C-370.3,-224.57875 -370.44,-224.39875 -370.72,-224.39875 L-373.78,-224.39875 Z M-370.3,-243.35875 L-368.02,-243.35875 C-365.94,-243.35875 -364.43,-244.01875 -363.49,-245.33875 C-362.55,-246.65875 -362.08,-248.71875 -362.08,-251.51875 C-362.08,-254.55875 -362.55,-256.72875 -363.49,-258.02875 C-364.43,-259.32875 -365.86,-259.97875 -367.78,-259.97875 L-370.3,-259.97875 L-370.3,-243.35875 Z" id="Shape"></path>
                    <path d="M-353.14,-224.39875 C-353.46,-224.39875 -353.62,-224.57875 -353.62,-224.93875 L-353.62,-263.15875 C-353.62,-263.51875 -353.48,-263.69875 -353.2,-263.69875 L-339.64,-263.69875 C-339.36,-263.69875 -339.22,-263.51875 -339.22,-263.15875 L-339.22,-260.45875 C-339.22,-260.09875 -339.36,-259.91875 -339.64,-259.91875 L-349.72,-259.91875 L-349.72,-246.23875 L-340.48,-246.23875 C-340.2,-246.23875 -340.06,-246.05875 -340.06,-245.69875 L-340.06,-243.17875 C-340.06,-242.81875 -340.2,-242.63875 -340.48,-242.63875 L-349.72,-242.63875 L-349.72,-228.17875 L-339.64,-228.17875 C-339.36,-228.17875 -339.22,-227.99875 -339.22,-227.63875 L-339.22,-224.93875 C-339.22,-224.57875 -339.36,-224.39875 -339.64,-224.39875 L-353.14,-224.39875 Z" id="Path"></path>
                    <path d="M-325.66,-224.03875 C-328.7,-224.03875 -331.02,-225.01875 -332.62,-226.97875 C-334.22,-228.93875 -335.02,-231.89875 -335.02,-235.85875 L-335.02,-252.23875 C-335.02,-256.19875 -334.22,-259.15875 -332.62,-261.11875 C-331.02,-263.07875 -328.7,-264.05875 -325.66,-264.05875 C-323.46,-264.05875 -321.64,-263.52875 -320.2,-262.46875 C-318.76,-261.40875 -317.74,-259.90875 -317.14,-257.96875 C-316.54,-256.02875 -316.4,-253.71875 -316.72,-251.03875 C-316.8,-250.71875 -316.94,-250.55875 -317.14,-250.55875 L-320.2,-250.55875 C-320.56,-250.55875 -320.7,-250.75875 -320.62,-251.15875 C-320.38,-254.15875 -320.67,-256.42875 -321.49,-257.96875 C-322.31,-259.50875 -323.7,-260.27875 -325.66,-260.27875 C-327.42,-260.27875 -328.77,-259.61875 -329.71,-258.29875 C-330.65,-256.97875 -331.12,-254.85875 -331.12,-251.93875 L-331.12,-236.15875 C-331.12,-233.27875 -330.65,-231.16875 -329.71,-229.82875 C-328.77,-228.48875 -327.42,-227.81875 -325.66,-227.81875 C-323.58,-227.81875 -322.15,-228.63875 -321.37,-230.27875 C-320.59,-231.91875 -320.3,-234.13875 -320.5,-236.93875 C-320.58,-237.33875 -320.44,-237.53875 -320.08,-237.53875 L-317.26,-237.53875 C-316.9,-237.53875 -316.7,-237.33875 -316.66,-236.93875 C-316.42,-232.81875 -317.06,-229.63875 -318.58,-227.39875 C-320.1,-225.15875 -322.46,-224.03875 -325.66,-224.03875 Z" id="Path"></path>
                    <path d="M-310.54,-224.39875 C-310.82,-224.39875 -310.96,-224.57875 -310.96,-224.93875 L-310.96,-263.15875 C-310.96,-263.51875 -310.82,-263.69875 -310.54,-263.69875 L-292.96,-263.69875 C-292.68,-263.69875 -292.54,-263.51875 -292.54,-263.15875 L-292.54,-224.93875 C-292.54,-224.57875 -292.7,-224.39875 -293.02,-224.39875 L-296.02,-224.39875 C-296.3,-224.39875 -296.44,-224.57875 -296.44,-224.93875 L-296.44,-259.91875 L-307.06,-259.91875 L-307.06,-224.93875 C-307.06,-224.57875 -307.2,-224.39875 -307.48,-224.39875 L-310.54,-224.39875 Z" id="Path"></path>
                    <path d="M-284.68,-224.39875 C-284.84,-224.39875 -284.95,-224.44875 -285.01,-224.54875 C-285.07,-224.64875 -285.08,-224.79875 -285.04,-224.99875 L-281.14,-238.13875 L-288.76,-263.03875 C-288.88,-263.47875 -288.76,-263.69875 -288.4,-263.69875 L-284.8,-263.69875 C-284.56,-263.69875 -284.4,-263.59875 -284.32,-263.39875 L-280.78,-250.07875 C-280.5,-248.95875 -280.21,-247.80875 -279.91,-246.62875 C-279.61,-245.44875 -279.32,-244.29875 -279.04,-243.17875 L-278.92,-243.17875 C-278.6,-244.29875 -278.29,-245.44875 -277.99,-246.62875 C-277.69,-247.80875 -277.4,-248.95875 -277.12,-250.07875 L-273.58,-263.33875 C-273.5,-263.57875 -273.36,-263.69875 -273.16,-263.69875 L-269.68,-263.69875 C-269.28,-263.69875 -269.14,-263.47875 -269.26,-263.03875 L-280.84,-224.75875 C-280.92,-224.51875 -281.08,-224.39875 -281.32,-224.39875 L-284.68,-224.39875 Z" id="Path"></path>
                    <path d="M-265.24,-224.39875 C-265.56,-224.39875 -265.72,-224.57875 -265.72,-224.93875 L-265.72,-263.15875 C-265.72,-263.51875 -265.56,-263.69875 -265.24,-263.69875 L-252.04,-263.69875 C-251.76,-263.69875 -251.62,-263.51875 -251.62,-263.15875 L-251.62,-260.45875 C-251.62,-260.09875 -251.78,-259.91875 -252.1,-259.91875 L-261.82,-259.91875 L-261.82,-248.27875 L-259.12,-248.27875 C-255.68,-248.27875 -253.15,-247.32875 -251.53,-245.42875 C-249.91,-243.52875 -249.1,-240.57875 -249.1,-236.57875 C-249.1,-233.81875 -249.46,-231.53875 -250.18,-229.73875 C-250.9,-227.93875 -251.99,-226.59875 -253.45,-225.71875 C-254.91,-224.83875 -256.8,-224.39875 -259.12,-224.39875 L-265.24,-224.39875 Z M-261.82,-228.17875 L-259.18,-228.17875 C-256.94,-228.17875 -255.35,-228.84875 -254.41,-230.18875 C-253.47,-231.52875 -253,-233.67875 -253,-236.63875 C-253,-239.47875 -253.47,-241.50875 -254.41,-242.72875 C-255.35,-243.94875 -256.94,-244.55875 -259.18,-244.55875 L-261.82,-244.55875 L-261.82,-228.17875 Z" id="Shape"></path>
                    <path d="M-247.6,-224.39875 C-247.88,-224.39875 -248,-224.59875 -247.96,-224.99875 L-240.34,-263.27875 C-240.3,-263.55875 -240.12,-263.69875 -239.8,-263.69875 L-235.6,-263.69875 C-235.28,-263.69875 -235.1,-263.55875 -235.06,-263.27875 L-227.38,-224.99875 C-227.34,-224.59875 -227.46,-224.39875 -227.74,-224.39875 L-231.04,-224.39875 C-231.24,-224.39875 -231.38,-224.51875 -231.46,-224.75875 L-236.26,-250.67875 C-236.54,-252.11875 -236.8,-253.52875 -237.04,-254.90875 C-237.28,-256.28875 -237.5,-257.67875 -237.7,-259.07875 L-237.82,-259.07875 C-238.02,-257.67875 -238.23,-256.28875 -238.45,-254.90875 C-238.67,-253.52875 -238.9,-252.13875 -239.14,-250.73875 L-243.88,-224.75875 C-243.92,-224.51875 -244.06,-224.39875 -244.3,-224.39875 L-247.6,-224.39875 Z" id="Path"></path>
                    <path d="M-223.96,-224.39875 C-224.24,-224.39875 -224.38,-224.57875 -224.38,-224.93875 L-224.38,-263.15875 C-224.38,-263.51875 -224.24,-263.69875 -223.96,-263.69875 L-220.9,-263.69875 C-220.62,-263.69875 -220.48,-263.51875 -220.48,-263.15875 L-220.48,-244.25875 C-220.48,-243.45875 -220.5,-242.42875 -220.54,-241.16875 C-220.58,-239.90875 -220.64,-238.56875 -220.72,-237.14875 C-220.8,-235.72875 -220.87,-234.38875 -220.93,-233.12875 C-220.99,-231.86875 -221.04,-230.81875 -221.08,-229.97875 L-220.96,-229.97875 C-220.64,-231.13875 -220.26,-232.52875 -219.82,-234.14875 C-219.38,-235.76875 -218.9,-237.46875 -218.38,-239.24875 C-217.86,-241.02875 -217.34,-242.69875 -216.82,-244.25875 L-210.76,-263.33875 C-210.68,-263.57875 -210.52,-263.69875 -210.28,-263.69875 L-206.44,-263.69875 C-206.12,-263.69875 -205.96,-263.51875 -205.96,-263.15875 L-205.96,-224.93875 C-205.96,-224.57875 -206.12,-224.39875 -206.44,-224.39875 L-209.44,-224.39875 C-209.72,-224.39875 -209.86,-224.57875 -209.86,-224.93875 L-209.68,-242.99875 C-209.68,-243.95875 -209.66,-245.09875 -209.62,-246.41875 C-209.58,-247.73875 -209.53,-249.11875 -209.47,-250.55875 C-209.41,-251.99875 -209.35,-253.37875 -209.29,-254.69875 C-209.23,-256.01875 -209.16,-257.15875 -209.08,-258.11875 L-209.2,-258.11875 C-209.56,-256.79875 -209.99,-255.27875 -210.49,-253.55875 C-210.99,-251.83875 -211.51,-250.06875 -212.05,-248.24875 C-212.59,-246.42875 -213.14,-244.67875 -213.7,-242.99875 L-219.64,-224.75875 C-219.68,-224.51875 -219.86,-224.39875 -220.18,-224.39875 L-223.96,-224.39875 Z" id="Path"></path>
                    <path d="M-199.36,-224.39875 C-199.64,-224.39875 -199.78,-224.57875 -199.78,-224.93875 L-199.78,-263.15875 C-199.78,-263.51875 -199.64,-263.69875 -199.36,-263.69875 L-196.3,-263.69875 C-196.02,-263.69875 -195.88,-263.51875 -195.88,-263.15875 L-195.88,-246.35875 L-193.06,-246.35875 L-185.98,-263.39875 C-185.9,-263.51875 -185.82,-263.59875 -185.74,-263.63875 C-185.66,-263.67875 -185.58,-263.69875 -185.5,-263.69875 L-182.32,-263.69875 C-182.16,-263.69875 -182.06,-263.63875 -182.02,-263.51875 C-181.98,-263.39875 -182,-263.23875 -182.08,-263.03875 L-189.7,-244.91875 L-181.18,-225.05875 C-181.02,-224.61875 -181.14,-224.39875 -181.54,-224.39875 L-184.84,-224.39875 C-184.96,-224.39875 -185.05,-224.40875 -185.11,-224.42875 C-185.17,-224.44875 -185.24,-224.53875 -185.32,-224.69875 L-193,-242.57875 L-195.88,-242.57875 L-195.88,-224.93875 C-195.88,-224.57875 -196.02,-224.39875 -196.3,-224.39875 L-199.36,-224.39875 Z" id="Path"></path>
                    <path d="M-180.16,-224.39875 C-180.44,-224.39875 -180.56,-224.59875 -180.52,-224.99875 L-172.72,-263.27875 C-172.68,-263.55875 -172.5,-263.69875 -172.18,-263.69875 L-167.98,-263.69875 C-167.66,-263.69875 -167.48,-263.55875 -167.44,-263.27875 L-159.58,-224.99875 C-159.54,-224.59875 -159.66,-224.39875 -159.94,-224.39875 L-163.24,-224.39875 C-163.48,-224.39875 -163.64,-224.51875 -163.72,-224.75875 L-168.58,-250.73875 C-168.86,-252.13875 -169.13,-253.52875 -169.39,-254.90875 C-169.65,-256.28875 -169.88,-257.67875 -170.08,-259.07875 L-170.2,-259.07875 C-170.4,-257.67875 -170.61,-256.28875 -170.83,-254.90875 C-171.05,-253.52875 -171.3,-252.11875 -171.58,-250.67875 L-176.44,-224.75875 C-176.48,-224.51875 -176.62,-224.39875 -176.86,-224.39875 L-180.16,-224.39875 Z M-175.36,-234.05875 L-174.64,-237.83875 L-165.64,-237.83875 L-164.8,-234.05875 L-175.36,-234.05875 Z" id="Shape"></path>
                    <path d="M-385.177,-144.39875 C-385.641,-144.39875 -385.873,-144.65975 -385.873,-145.18175 L-385.873,-200.60075 C-385.873,-201.12275 -385.641,-201.38375 -385.177,-201.38375 L-366.037,-201.38375 C-365.631,-201.38375 -365.428,-201.12275 -365.428,-200.60075 L-365.428,-196.68575 C-365.428,-196.16375 -365.66,-195.90275 -366.124,-195.90275 L-380.218,-195.90275 L-380.218,-179.02475 L-376.303,-179.02475 C-371.315,-179.02475 -367.6465,-177.64725 -365.2975,-174.89225 C-362.9485,-172.13725 -361.774,-167.85975 -361.774,-162.05975 C-361.774,-158.05775 -362.296,-154.75175 -363.34,-152.14175 C-364.384,-149.53175 -365.9645,-147.58875 -368.0815,-146.31275 C-370.1985,-145.03675 -372.939,-144.39875 -376.303,-144.39875 L-385.177,-144.39875 Z M-380.218,-149.87975 L-376.39,-149.87975 C-373.142,-149.87975 -370.8365,-150.85125 -369.4735,-152.79425 C-368.1105,-154.73725 -367.429,-157.85475 -367.429,-162.14675 C-367.429,-166.26475 -368.1105,-169.20825 -369.4735,-170.97725 C-370.8365,-172.74625 -373.142,-173.63075 -376.39,-173.63075 L-380.218,-173.63075 L-380.218,-149.87975 Z" id="Shape"></path>
                    <path d="M-354.118,-144.39875 C-354.582,-144.39875 -354.814,-144.65975 -354.814,-145.18175 L-354.814,-200.60075 C-354.814,-201.12275 -354.611,-201.38375 -354.205,-201.38375 L-334.543,-201.38375 C-334.137,-201.38375 -333.934,-201.12275 -333.934,-200.60075 L-333.934,-196.68575 C-333.934,-196.16375 -334.137,-195.90275 -334.543,-195.90275 L-349.159,-195.90275 L-349.159,-176.06675 L-335.761,-176.06675 C-335.355,-176.06675 -335.152,-175.80575 -335.152,-175.28375 L-335.152,-171.62975 C-335.152,-171.10775 -335.355,-170.84675 -335.761,-170.84675 L-349.159,-170.84675 L-349.159,-149.87975 L-334.543,-149.87975 C-334.137,-149.87975 -333.934,-149.61875 -333.934,-149.09675 L-333.934,-145.18175 C-333.934,-144.65975 -334.137,-144.39875 -334.543,-144.39875 L-354.118,-144.39875 Z" id="Path"></path>
                    <path d="M-330.628,-144.39875 C-331.034,-144.39875 -331.208,-144.68875 -331.15,-145.26875 L-320.101,-200.77475 C-320.043,-201.18075 -319.782,-201.38375 -319.318,-201.38375 L-313.228,-201.38375 C-312.764,-201.38375 -312.503,-201.18075 -312.445,-200.77475 L-301.309,-145.26875 C-301.251,-144.68875 -301.425,-144.39875 -301.831,-144.39875 L-306.616,-144.39875 C-306.906,-144.39875 -307.109,-144.57275 -307.225,-144.92075 L-314.185,-182.50475 C-314.591,-184.59275 -314.968,-186.63725 -315.316,-188.63825 C-315.664,-190.63925 -315.983,-192.65475 -316.273,-194.68475 L-316.447,-194.68475 C-316.737,-192.65475 -317.0415,-190.63925 -317.3605,-188.63825 C-317.6795,-186.63725 -318.013,-184.62175 -318.361,-182.59175 L-325.234,-144.92075 C-325.292,-144.57275 -325.495,-144.39875 -325.843,-144.39875 L-330.628,-144.39875 Z" id="Path"></path>
                    <path d="M-300.091,-144.39875 C-300.497,-144.39875 -300.671,-144.68875 -300.613,-145.26875 L-289.303,-200.77475 C-289.245,-201.18075 -288.984,-201.38375 -288.52,-201.38375 L-282.43,-201.38375 C-281.966,-201.38375 -281.705,-201.18075 -281.647,-200.77475 L-270.25,-145.26875 C-270.192,-144.68875 -270.366,-144.39875 -270.772,-144.39875 L-275.557,-144.39875 C-275.905,-144.39875 -276.137,-144.57275 -276.253,-144.92075 L-283.3,-182.59175 C-283.706,-184.62175 -284.0975,-186.63725 -284.4745,-188.63825 C-284.8515,-190.63925 -285.185,-192.65475 -285.475,-194.68475 L-285.649,-194.68475 C-285.939,-192.65475 -286.2435,-190.63925 -286.5625,-188.63825 C-286.8815,-186.63725 -287.244,-184.59275 -287.65,-182.50475 L-294.697,-144.92075 C-294.755,-144.57275 -294.958,-144.39875 -295.306,-144.39875 L-300.091,-144.39875 Z M-293.131,-158.40575 L-292.087,-163.88675 L-279.037,-163.88675 L-277.819,-158.40575 L-293.131,-158.40575 Z" id="Shape"></path>
                    <path d="M-265.291,-144.39875 C-265.697,-144.39875 -265.9,-144.65975 -265.9,-145.18175 L-265.9,-200.60075 C-265.9,-201.12275 -265.697,-201.38375 -265.291,-201.38375 L-256.939,-201.38375 C-252.009,-201.38375 -248.3985,-199.97725 -246.1075,-197.16425 C-243.8165,-194.35125 -242.671,-189.92875 -242.671,-183.89675 C-242.671,-178.27075 -243.831,-173.96425 -246.151,-170.97725 C-248.471,-167.99025 -251.893,-166.49675 -256.417,-166.49675 L-260.245,-166.49675 L-260.245,-145.18175 C-260.245,-144.65975 -260.448,-144.39875 -260.854,-144.39875 L-265.291,-144.39875 Z M-260.245,-171.89075 L-256.939,-171.89075 C-253.923,-171.89075 -251.7335,-172.84775 -250.3705,-174.76175 C-249.0075,-176.67575 -248.326,-179.66275 -248.326,-183.72275 C-248.326,-188.13075 -249.0075,-191.27725 -250.3705,-193.16225 C-251.7335,-195.04725 -253.807,-195.98975 -256.591,-195.98975 L-260.245,-195.98975 L-260.245,-171.89075 Z" id="Shape"></path>
                    <path d="M-233.623,-144.39875 C-233.855,-144.39875 -234.0145,-144.47125 -234.1015,-144.61625 C-234.1885,-144.76125 -234.203,-144.97875 -234.145,-145.26875 L-228.49,-164.32175 L-239.539,-200.42675 C-239.713,-201.06475 -239.539,-201.38375 -239.017,-201.38375 L-233.797,-201.38375 C-233.449,-201.38375 -233.217,-201.23875 -233.101,-200.94875 L-227.968,-181.63475 C-227.562,-180.01075 -227.1415,-178.34325 -226.7065,-176.63225 C-226.2715,-174.92125 -225.851,-173.25375 -225.445,-171.62975 L-225.271,-171.62975 C-224.807,-173.25375 -224.3575,-174.92125 -223.9225,-176.63225 C-223.4875,-178.34325 -223.067,-180.01075 -222.661,-181.63475 L-217.528,-200.86175 C-217.412,-201.20975 -217.209,-201.38375 -216.919,-201.38375 L-211.873,-201.38375 C-211.293,-201.38375 -211.09,-201.06475 -211.264,-200.42675 L-228.055,-144.92075 C-228.171,-144.57275 -228.403,-144.39875 -228.751,-144.39875 L-233.623,-144.39875 Z" id="Path"></path>
                    <path d="M-194.212,-143.87675 C-198.62,-143.87675 -201.984,-145.29775 -204.304,-148.13975 C-206.624,-150.98175 -207.784,-155.27375 -207.784,-161.01575 L-207.784,-184.76675 C-207.784,-190.50875 -206.624,-194.80075 -204.304,-197.64275 C-201.984,-200.48475 -198.62,-201.90575 -194.212,-201.90575 C-191.022,-201.90575 -188.383,-201.13725 -186.295,-199.60025 C-184.207,-198.06325 -182.728,-195.88825 -181.858,-193.07525 C-180.988,-190.26225 -180.785,-186.91275 -181.249,-183.02675 C-181.365,-182.56275 -181.568,-182.33075 -181.858,-182.33075 L-186.295,-182.33075 C-186.817,-182.33075 -187.02,-182.62075 -186.904,-183.20075 C-186.556,-187.55075 -186.9765,-190.84225 -188.1655,-193.07525 C-189.3545,-195.30825 -191.37,-196.42475 -194.212,-196.42475 C-196.764,-196.42475 -198.7215,-195.46775 -200.0845,-193.55375 C-201.4475,-191.63975 -202.129,-188.56575 -202.129,-184.33175 L-202.129,-161.45075 C-202.129,-157.27475 -201.4475,-154.21525 -200.0845,-152.27225 C-198.7215,-150.32925 -196.764,-149.35775 -194.212,-149.35775 C-191.196,-149.35775 -189.1225,-150.54675 -187.9915,-152.92475 C-186.8605,-155.30275 -186.44,-158.52175 -186.73,-162.58175 C-186.846,-163.16175 -186.643,-163.45175 -186.121,-163.45175 L-182.032,-163.45175 C-181.51,-163.45175 -181.22,-163.16175 -181.162,-162.58175 C-180.814,-156.60775 -181.742,-151.99675 -183.946,-148.74875 C-186.15,-145.50075 -189.572,-143.87675 -194.212,-143.87675 Z" id="Path"></path>
                    <path d="M-172.288,-144.39875 C-172.694,-144.39875 -172.897,-144.65975 -172.897,-145.18175 L-172.897,-200.60075 C-172.897,-201.12275 -172.694,-201.38375 -172.288,-201.38375 L-167.851,-201.38375 C-167.445,-201.38375 -167.242,-201.12275 -167.242,-200.60075 L-167.242,-179.45975 L-164.458,-179.45975 C-159.18,-179.45975 -155.2505,-178.08225 -152.6695,-175.32725 C-150.0885,-172.57225 -148.798,-168.35275 -148.798,-162.66875 C-148.798,-156.63675 -150.016,-152.08375 -152.452,-149.00975 C-154.888,-145.93575 -158.803,-144.39875 -164.197,-144.39875 L-172.288,-144.39875 Z M-167.242,-149.87975 L-164.284,-149.87975 C-160.804,-149.87975 -158.281,-150.89475 -156.715,-152.92475 C-155.149,-154.95475 -154.395,-158.20275 -154.453,-162.66875 C-154.511,-166.72875 -155.323,-169.64325 -156.889,-171.41225 C-158.455,-173.18125 -160.949,-174.06575 -164.371,-174.06575 L-167.242,-174.06575 L-167.242,-149.87975 Z" id="Shape"></path>
                </g>
            </g>
        </g>
    </g>
</svg>