<?xml version="1.0" encoding="UTF-8"?>
<svg width="1200px" height="158px" viewBox="0 0 1200 158" version="1.1" xmlns="http://www.w3.org/2000/svg" xmlns:xlink="http://www.w3.org/1999/xlink">
    <title>Logo</title>
    <defs>
        <linearGradient x1="50%" y1="0%" x2="50%" y2="100%" id="linearGradient-1">
            <stop stop-color="#F7B213" offset="0%"></stop>
            <stop stop-color="#EB7B08" offset="100%"></stop>
        </linearGradient>
        <linearGradient x1="50%" y1="0%" x2="50%" y2="100%" id="linearGradient-2">
            <stop stop-color="#F7B213" offset="0%"></stop>
            <stop stop-color="#EB7B08" offset="100%"></stop>
        </linearGradient>
        <linearGradient x1="50%" y1="0%" x2="50%" y2="100%" id="linearGradient-3">
            <stop stop-color="#F7B213" offset="0%"></stop>
            <stop stop-color="#EB7B08" offset="100%"></stop>
        </linearGradient>
        <linearGradient x1="50%" y1="0%" x2="50%" y2="100%" id="linearGradient-4">
            <stop stop-color="#F7B213" offset="0%"></stop>
            <stop stop-color="#EB7B08" offset="100%"></stop>
        </linearGradient>
        <linearGradient x1="50%" y1="0%" x2="50%" y2="100%" id="linearGradient-5">
            <stop stop-color="#F7B213" offset="0%"></stop>
            <stop stop-color="#EB7B08" offset="100%"></stop>
        </linearGradient>
        <linearGradient x1="50%" y1="0%" x2="50%" y2="100%" id="linearGradient-6">
            <stop stop-color="#C8C8C8" offset="0%"></stop>
            <stop stop-color="#979797" offset="100%"></stop>
        </linearGradient>
        <linearGradient x1="50%" y1="0%" x2="50%" y2="100%" id="linearGradient-7">
            <stop stop-color="#C8C8C8" offset="0%"></stop>
            <stop stop-color="#979797" offset="100%"></stop>
        </linearGradient>
        <linearGradient x1="50%" y1="0%" x2="50%" y2="100%" id="linearGradient-8">
            <stop stop-color="#C8C8C8" offset="0%"></stop>
            <stop stop-color="#979797" offset="100%"></stop>
        </linearGradient>
        <linearGradient x1="50%" y1="0%" x2="50%" y2="100%" id="linearGradient-9">
            <stop stop-color="#C8C8C8" offset="0%"></stop>
            <stop stop-color="#979797" offset="100%"></stop>
        </linearGradient>
    </defs>
    <g id="Logo" stroke="none" fill="none" fill-rule="evenodd">
        <path d="M1158,-7.10542736e-15 C1181.19596,-1.42108547e-14 1200,18.8040405 1200,42 L1200,116 C1200,139.195959 1181.19596,158 1158,158 L42,158 C18.8040405,158 0,139.195959 0,116 L7.10542736e-15,42 C7.10542736e-15,18.8040405 18.8040405,-7.10542736e-15 42,-7.10542736e-15 L1158,-7.10542736e-15 Z M1154,12 L46,12 C27.2223185,12 12,27.2223185 12,46 L12,112 C12,130.777681 27.2223185,146 46,146 L1154,146 C1172.77768,146 1188,130.777681 1188,112 L1188,46 C1188,27.2223185 1172.77768,12 1154,12 Z" id="L0" fill="url(#linearGradient-1)"></path>
        <polygon id="L1" fill="url(#linearGradient-2)" points="104.3 39.6 88.05 89.4947368 88.8833333 89.4947368 155.133333 39.6 186.383333 39.6 160.133333 120.263158 128.883333 120.263158 145.133333 70.3684211 78.05 120.263158 46.8 120.263158 73.8833333 39.6"></polygon>
        <polygon id="L2" fill="url(#linearGradient-3)" points="234.733333 39.6 223.9 69.9526316 274.733333 69.9526316 285.15 39.6 316.4 39.6 289.316667 120.263158 258.066667 120.263158 268.483333 89.9105263 218.066667 89.9105263 207.65 120.263158 176.4 120.263158 203.066667 39.6"></polygon>
        <path d="M420.633333,28.8 L416.883333,39.6105263 L471.883333,39.6105263 L445.216667,120.273684 L391.05,120.273684 L387.3,131.084211 L356.466667,131.084211 L360.216667,120.273684 L304.8,120.273684 L331.466667,39.6105263 L386.05,39.6105263 L389.383333,28.8 L420.633333,28.8 Z M379.866667,60 L356.795506,60 L343.2,99.9157895 L367.095131,99.9157895 L379.866667,60 Z M433.866667,60 L410.795506,60 L397.2,99.9157895 L420.683146,99.9157895 L433.866667,60 Z" id="L3" fill="url(#linearGradient-4)"></path>
        <path d="M599.55,39.6 L572.466667,120.263158 L460.8,120.263158 L488.3,39.6 L599.55,39.6 Z M561.75,60 L511.333333,60 L498,99.0842105 L548,99.0842105 L561.75,60 Z" id="L4" fill="url(#linearGradient-5)"></path>
        <path d="M722.9,38.4 L696.233333,119.063158 L665.816667,119.063158 L685.816667,58.3578947 L678.906168,58.3395853 L673.177216,58.3404209 C672.116314,58.3431158 671.210738,58.3475049 670.460488,58.3535882 L667.183112,58.3901366 C664.593029,58.4300151 662.080916,58.5141713 660.816667,58.7736842 C656.598149,59.6396207 654.667966,61.5831245 652.9,63.3473684 C648.733333,67.5052632 641.788889,86.077193 632.066667,119.063158 L590.4,119.063158 L597.066667,99.1052632 L608.316667,99.1052632 L609.218256,95.9413387 C612.57644,84.2197987 615.161042,75.9339131 616.972064,71.0836819 L618.639155,66.6549705 C620.595634,61.4857908 622.395557,56.979319 624.566667,53.3684211 L625.177188,52.3570198 C626.009767,50.9890172 626.916712,49.567114 627.9,48.3789474 C630.228363,45.5654458 632.896642,43.4018167 635.4,41.7263158 C638.018165,39.9739745 642.184831,38.8652026 647.9,38.4 L722.9,38.4 Z" id="L5" fill="url(#linearGradient-6)"></path>
        <polygon id="L6" fill="url(#linearGradient-7)" points="770.3 39.6 754.05 89.4947368 754.883333 89.4947368 821.133333 39.6 852.383333 39.6 826.133333 120.263158 794.883333 120.263158 811.133333 70.3684211 744.05 120.263158 712.8 120.263158 739.883333 39.6"></polygon>
        <path d="M957.033333,28.8 L953.283333,39.6105263 L1008.28333,39.6105263 L981.616667,120.273684 L927.45,120.273684 L923.7,131.084211 L892.866667,131.084211 L896.616667,120.273684 L841.2,120.273684 L867.866667,39.6105263 L922.45,39.6105263 L925.783333,28.8 L957.033333,28.8 Z M916.266667,60 L893.195506,60 L879.6,99.9157895 L903.495131,99.9157895 L916.266667,60 Z M970.266667,60 L947.195506,60 L933.6,99.9157895 L957.083146,99.9157895 L970.266667,60 Z" id="L7" fill="url(#linearGradient-8)"></path>
        <polygon id="L8" fill="url(#linearGradient-9)" points="1153.4 39.6 1132.98333 100.305263 1149.65 100.305263 1142.56667 120.263158 1095.9 120.263158 1115.48333 60.3894737 1098.4 60.3894737 1078.81667 120.263158 1048.4 120.263158 1067.98333 60.3894737 1048.81667 60.3894737 1029.23333 120.263158 998.4 120.263158 1024.65 39.6"></polygon>
    </g>
</svg>