<svg height="158" viewBox="0 0 1200 158" width="1200" xmlns="http://www.w3.org/2000/svg" xmlns:xlink="http://www.w3.org/1999/xlink"><linearGradient id="a" x1="50%" x2="50%" y1="0%" y2="100%"><stop offset=".436" stop-color="#f7b213"/><stop offset="1" stop-color="#eb7b08"/></linearGradient><linearGradient id="b" x1="50%" x2="50%" y1="0%" y2="100%"><stop offset="0" stop-color="#f7b213"/><stop offset="1" stop-color="#eb7b08"/></linearGradient><linearGradient id="c" x1="50%" x2="50%" y1="0%" y2="100%"><stop offset="0" stop-color="#c8c8c8"/><stop offset="1" stop-color="#979797"/></linearGradient><g fill="none" fill-rule="evenodd"><path d="m53.4 6h1093.2c16 0 22.5 1.2 28 4.2 5.7 3.1 10.2 7.6 13.3 13.3 3.6 6.7 4.1 13.2 4.1 29.9v51.2c0 16-.5 22.5-4.1 29.2-3.1 5.7-7.6 10.2-13.3 13.3-6.7 3.6-13.2 4.9-29.2 4.9h-1092c-16 0-22.5-1.3-29.3-4.9-5.7-3.1-10.2-7.6-13.3-13.3-3.6-6.7-4.8-13.2-4.8-29.2v-51.2c0-16 1.3-22.5 4.9-29.3 3.1-5.7 7.6-10.2 13.3-13.3 6.7-3.6 13.2-4.8 29.2-4.8z" stroke="url(#a)" stroke-width="12"/><path d="m104.3 39.6-16.25 50h.83l66.22-50h31.3l-26.3 80.7h-31.3l16.25-50-67.05 50h-31.2l27.1-80.7zm316.3-10.8-3.75 10.8h55l-26.7 80.7h-54.2l-3.75 10.8h-30.8l3.75-10.8h-55.4l26.7-80.7h54.6l3.3-10.8h31.3zm-185.9 10.8-10.8 30.4h50.8l10.4-30.4h31.3l-27.1 80.7h-31.3l10.4-30.4h-50.4l-10.4 30.4h-31.3l26.7-80.7zm364.8 0-27 80.7h-111.7l27.5-80.7zm-165.6 20.4h-23.1l-13.6 40h23.5zm-54 0h-23.1l-13.6 40h23.9zm181.9 0h-50.4l-13.3 39.1h50z" fill="url(#b)"/><path d="m770.3 39.6-16.25 50h.83l66.22-50h31.3l-26.3 80.7h-31.3l16.25-50-67.05 50h-31.2l27.1-80.7zm-47.4-1.2-26.7 80.7h-30.4l20-60.7h-6.9-5.7c-1.1 0-2 0-2.7.01l-3.3.04c-2.6.04-5.1.12-6.4.38-4.2.87-6.1 2.8-7.9 4.6-4.2 4.1-11.1 22.7-20.8 55.7h-41.7l6.7-20h11.2l.9-3.2c3.4-11.7 6-20 7.8-24.8l1.7-4.4c2-5.2 3.8-9.7 6-13.3l.6-1c.8-1.4 1.7-2.8 2.7-4 2.3-2.8 5-5 7.5-6.6 2.6-1.8 6.8-2.9 12.5-3.3h75zm234.1-9.6-3.75 10.8h55l-26.7 80.7h-54.2l-3.75 10.8h-30.7l3.75-10.8h-55.4l26.7-80.7h54.55l3.3-10.8zm196.4 10.8-20.4 60.7h16.7l-7.1 20h-46.7l19.6-60h-17.1l-19.6 60h-30.4l19.6-60h-19.2l-19.6 60h-30.8l26.3-80.7zm-183.1 20.4h-23.1l-13.6 40h23.5zm-54 0h-23.1l-13.6 40h23.9z" fill="url(#c)"/></g></svg>