<?xml version="1.0" encoding="UTF-8"?>
<svg width="412px" height="54px" viewBox="0 0 412 54" version="1.1" xmlns="http://www.w3.org/2000/svg" xmlns:xlink="http://www.w3.org/1999/xlink">
    <title>Logo</title>
    <defs>
        <linearGradient x1="50%" y1="43.5859375%" x2="50%" y2="100%" id="linearGradient-1">
            <stop stop-color="#F7B213" offset="0%"></stop>
            <stop stop-color="#EB7B08" offset="100%"></stop>
        </linearGradient>
        <path d="M22.8888889,0 L389.111111,0 C397.122973,0 401.128904,0 404.189031,1.55921222 C406.880794,2.93073412 409.069266,5.11920597 410.440788,7.81096924 C412,10.8710955 412,14.8770266 412,22.8888889 L412,31.1111111 C412,39.1229734 412,43.1289045 410.440788,46.1890308 C409.069266,48.880794 406.880794,51.0692659 404.189031,52.4407878 C401.128904,54 397.122973,54 389.111111,54 L22.8888889,54 C14.8770266,54 10.8710955,54 7.81096924,52.4407878 C5.11920597,51.0692659 2.93073412,48.880794 1.55921222,46.1890308 C0,43.1289045 0,39.1229734 0,31.1111111 L0,22.8888889 C0,14.8770266 0,10.8710955 1.55921222,7.81096924 C2.93073412,5.11920597 5.11920597,2.93073412 7.81096924,1.55921222 C10.8710955,0 14.8770266,0 22.8888889,0 Z" id="path-2"></path>
        <linearGradient x1="50%" y1="0%" x2="50%" y2="100%" id="linearGradient-3">
            <stop stop-color="#F7B213" offset="0%"></stop>
            <stop stop-color="#EB7B08" offset="100%"></stop>
        </linearGradient>
        <linearGradient x1="50%" y1="0%" x2="50%" y2="100%" id="linearGradient-4">
            <stop stop-color="#C8C8C8" offset="0%"></stop>
            <stop stop-color="#979797" offset="100%"></stop>
        </linearGradient>
    </defs>
    <g id="Logo" stroke="none" fill="none" xlink:href="#path-2">
        <path stroke="url(#linearGradient-1)" stroke-width="4.12" d="M402.829288,3.19057684 L403.25381,3.39468569 C405.55796,4.5687084 407.431292,6.44204031 408.605314,8.74618967 C409.752922,10.9984965 409.94,13.2882226 409.94,22.8888889 L409.94,31.1111111 C409.94,40.7117774 409.752922,43.0015035 408.605314,45.2538103 C407.431292,47.5579597 405.55796,49.4312916 403.25381,50.6053143 C401.001503,51.752922 398.711777,51.94 389.111111,51.94 L22.8888889,51.94 C13.2882226,51.94 10.9984965,51.752922 8.74618967,50.6053143 C6.44204031,49.4312916 4.5687084,47.5579597 3.39468566,45.2538103 C2.24707801,43.0015035 2.06,40.7117774 2.06,31.1111111 L2.06,22.8888889 C2.06,13.2882226 2.24707801,10.9984965 3.39468566,8.74618967 C4.5687084,6.44204031 6.44204031,4.5687084 8.74618967,3.39468566 C10.8885062,2.30312089 13.3680025,2.06691059 21.4345301,2.06038037 L22.8894278,2.06000032 L389.111111,2.06 C398.111736,2.06 400.686729,2.22442403 402.829288,3.19057684 Z" stroke-linejoin="square"></path>
        <path d="M35.8096667,13.5341772 L30.2305,30.5868088 L30.5166111,30.5868088 L53.2624444,13.5341772 L63.9916111,13.5341772 L54.9791111,41.1025983 L44.2499444,41.1025983 L49.8291111,24.0499667 L26.7971667,41.1025983 L16.068,41.1025983 L25.3666111,13.5341772 L35.8096667,13.5341772 Z M144.417444,9.84303797 L143.129944,13.5377748 L162.013278,13.5377748 L152.857722,41.1061959 L134.2605,41.1061959 L132.973,44.8009327 L122.386889,44.8009327 L123.674389,41.1061959 L104.648,41.1061959 L113.803556,13.5377748 L132.543833,13.5377748 L133.688278,9.84303797 L144.417444,9.84303797 Z M80.5917778,13.5341772 L76.8723333,23.9078614 L94.3251111,23.9078614 L97.9015,13.5341772 L108.630667,13.5341772 L99.3320556,41.1025983 L88.6028889,41.1025983 L92.1792778,30.7289141 L74.8695556,30.7289141 L71.2931667,41.1025983 L60.564,41.1025983 L69.7195556,13.5341772 L80.5917778,13.5341772 Z M205.8455,13.5341772 L196.546889,41.1025983 L158.208,41.1025983 L167.649667,13.5341772 L205.8455,13.5341772 Z M148.960889,20.5063291 L141.03979,20.5063291 L136.372,34.1484344 L144.434547,34.1484344 L148.960889,20.5063291 Z M130.420889,20.5063291 L122.49979,20.5063291 L117.832,34.1484344 L126.035995,34.1484344 L130.420889,20.5063291 Z M192.8675,20.5063291 L175.557778,20.5063291 L170.98,33.8642239 L188.146667,33.8642239 L192.8675,20.5063291 Z" id="Shape" stroke="#EB7B08" stroke-width="0.286111111" fill="url(#linearGradient-3)" fill-rule="evenodd"></path>
        <path d="M264.469667,13.5341772 L258.8905,30.5868088 L259.176611,30.5868088 L281.922444,13.5341772 L292.651611,13.5341772 L283.639111,41.1025983 L272.909944,41.1025983 L278.489111,24.0499667 L255.457167,41.1025983 L244.728,41.1025983 L254.026611,13.5341772 L264.469667,13.5341772 Z M248.195667,13.1240506 L239.040111,40.6924717 L228.597056,40.6924717 L235.463722,19.9451033 L233.091118,19.9388456 L231.124178,19.9391312 C230.759935,19.9400522 230.44902,19.9415523 230.191434,19.9436314 L229.066202,19.9561226 C228.17694,19.969752 227.314448,19.9985142 226.880389,20.0872085 C225.432031,20.3831615 224.769335,21.047397 224.162333,21.6503664 C222.731778,23.0714191 220.347519,29.4187875 217.009556,40.6924717 L202.704,40.6924717 L204.992889,33.8714191 L208.855389,33.8714191 L209.164935,32.7900778 C210.317911,28.7839818 211.205291,25.9520969 211.827075,24.2944229 L212.399443,22.7808127 C213.071168,21.014131 213.689141,19.4739445 214.434556,18.2398401 L214.644168,17.8941713 C214.93002,17.4266261 215.241404,16.9406592 215.579,16.5345769 C216.378404,15.5730005 217.294514,14.8335323 218.154,14.2608927 C219.052903,13.6619913 220.483459,13.2830439 222.445667,13.1240506 L248.195667,13.1240506 Z M328.581444,9.84303797 L327.293944,13.5377748 L346.177278,13.5377748 L337.021722,41.1061959 L318.4245,41.1061959 L317.137,44.8009327 L306.550889,44.8009327 L307.838389,41.1061959 L288.812,41.1061959 L297.967556,13.5377748 L316.707833,13.5377748 L317.852278,9.84303797 L328.581444,9.84303797 Z M396.000667,13.5341772 L388.990944,34.2815456 L394.713167,34.2815456 L392.281222,41.1025983 L376.259,41.1025983 L382.982611,20.6394404 L377.117333,20.6394404 L370.393722,41.1025983 L359.950667,41.1025983 L366.674278,20.6394404 L360.093722,20.6394404 L353.370111,41.1025983 L342.784,41.1025983 L351.7965,13.5341772 L396.000667,13.5341772 Z M333.124889,20.5063291 L325.20379,20.5063291 L320.536,34.1484344 L328.598547,34.1484344 L333.124889,20.5063291 Z M314.584889,20.5063291 L306.66379,20.5063291 L301.996,34.1484344 L310.199995,34.1484344 L314.584889,20.5063291 Z" id="Shape" stroke="#979797" stroke-width="0.286111111" fill="url(#linearGradient-4)" fill-rule="evenodd"></path>
    </g>
</svg>