<?xml version="1.0" encoding="UTF-8"?>
<svg width="32px" height="32px" viewBox="0 0 32 32" version="1.1" xmlns="http://www.w3.org/2000/svg" xmlns:xlink="http://www.w3.org/1999/xlink">
    <title>favicon</title>
    <g id="favicon" stroke="none" stroke-width="1" fill="none" fill-rule="evenodd">
        <g>
            <path d="M24.8391608,7.21310806 C28.3449883,8.18988311 30.5454545,9.80531877 31.4405594,12.059415 C32.8476295,15.6027667 31.1048951,19.6106375 29.4265734,21.5266194 C26.3805323,25.0039977 23.1608392,25.358583 21.1468531,25.5839926 C19.8041958,25.7342657 16.2237762,25.771834 10.4055944,25.6966975 L10.4055944,12.9610535 C11.5990676,12.885917 12.7179487,13.1864632 13.7622378,13.8626921 C15.3286713,14.8770354 15.7762238,16.2294931 15.7762238,16.905722 L15.7762238,20.1741616 C17.8648019,20.2492981 19.3566434,20.2492981 20.2517483,20.1741616 C21.5944056,20.0614568 24.112448,19.8463025 25.7342657,16.905722 C26.2937063,15.8913787 26.9241667,14.3168962 26.6293706,11.495891 C26.4801865,10.0682967 25.8834499,8.64070236 24.8391608,7.21310806 Z M29.4265734,4.28278291 C30.5454545,5.63524067 31.4032634,7.62635904 32,10.256138 C30.1351981,8.45286101 28.2703963,7.21310806 26.4055944,6.53687918 C23.6083916,5.52253586 21.5944056,5.29712623 19.3566434,5.29712623 L11.4125874,5.29712623 C9.67247375,5.1510583 8.34488952,4.33864891 7.27272727,3.3811444 C6.55795244,2.74280806 5.84932774,1.61575993 5.14685315,0 L20.5874126,0 C22.4813993,0 26.3210907,0.529002342 29.4265734,4.28278291 Z" id="RED" fill="#FF0000"></path>
            <path d="M19.6923077,13.4788423 C23.1981352,14.4556174 25.3986014,16.071053 26.2937063,18.3251493 C27.7007764,21.8685009 25.958042,25.8763718 24.2797203,27.7923536 C21.2336791,31.269732 18.013986,31.6243173 16,31.8497269 C14.6573427,32 11.0769231,32.0375683 5.25874126,31.9624317 L5.25874126,19.2267878 C6.45221445,19.1516513 7.57109557,19.4521974 8.61538462,20.1284263 C10.1818182,21.1427696 10.6293706,22.4952274 10.6293706,23.1714563 L10.6293706,26.4398959 C12.7179487,26.5150324 14.2097902,26.5150324 15.1048951,26.4398959 C16.4475524,26.3271911 18.9655949,26.1120368 20.5874126,23.1714563 C21.1468531,22.157113 21.7773136,20.5826304 21.4825175,17.7616252 C21.3333333,16.3340309 20.7365967,14.9064366 19.6923077,13.4788423 Z M24.2797203,10.5485172 C25.3986014,11.9009749 26.2564103,13.8920933 26.8531469,16.5218723 C24.988345,14.7185953 23.1235431,13.4788423 21.2587413,12.8026134 C18.4615385,11.7882701 16.4475524,11.5628605 14.2097902,11.5628605 L6.26573427,11.5628605 C4.52562061,11.4167926 3.19803637,10.6043832 2.12587413,9.64687867 C1.4110993,9.00854233 0.702474588,7.88149419 0,6.26573427 L15.4405594,6.26573427 C17.3345462,6.26573427 21.1742376,6.79473661 24.2797203,10.5485172 Z" id="BLACK" fill="#000000" transform="translate(13.4266, 19.1329) rotate(180) translate(-13.4266, -19.1329)"></path>
        </g>
    </g>
</svg>