<?xml version="1.0" encoding="UTF-8"?>
<svg width="140px" height="140px" viewBox="0 0 140 140" version="1.1" xmlns="http://www.w3.org/2000/svg" xmlns:xlink="http://www.w3.org/1999/xlink">
    <title>logo</title>
    <g id="favicon" stroke="none" stroke-width="1" fill="none" fill-rule="evenodd">
        <g id="logo" transform="translate(0, 17)">
            <path d="M108.533333,14.3927007 C123.938889,18.6437956 133.608333,25.6744526 137.541667,35.4846715 C143.724714,50.9059541 136.066667,68.3489051 128.691667,76.6875912 C115.306537,91.8217467 101.158333,93.3649635 92.3083333,94.3459854 C86.4083333,95 70.675,95.1635036 45.1083333,94.8364964 L45.1083333,39.4087591 C50.3527778,39.0817518 55.2694444,40.389781 59.8583333,43.3328467 C66.7416667,47.7474453 68.7083333,53.6335766 68.7083333,56.5766423 L68.7083333,70.8014599 C77.8861111,71.1284672 84.4416667,71.1284672 88.375,70.8014599 C94.275,70.3109489 105.33996,69.37456 112.466667,56.5766423 C114.925,52.1620438 117.695414,45.309622 116.4,33.0321168 C115.744444,26.8189781 113.122222,20.6058394 108.533333,14.3927007 Z M128.691667,1.63941606 C133.608333,7.52554745 137.377778,16.1912409 140,27.6364964 C131.805556,19.7883212 123.611111,14.3927007 115.416667,11.449635 C103.125,7.0350365 94.275,6.0540146 84.4416667,6.0540146 L49.5333333,6.0540146 C41.8868026,5.41830154 36.0530379,1.88255461 31.3416667,-2.28467153 C28.2007525,-5.0628223 25.0868636,-9.96793179 22,-17 L89.85,-17 C98.1726907,-17 115.045335,-14.6976898 128.691667,1.63941606 Z" id="RED" fill="#FF0000"></path>
            <path d="M86.5333333,42.3927007 C101.938889,46.6437956 111.608333,53.6744526 115.541667,63.4846715 C121.724714,78.9059541 114.066667,96.3489051 106.691667,104.687591 C93.3065368,119.821747 79.1583333,121.364964 70.3083333,122.345985 C64.4083333,123 48.675,123.163504 23.1083333,122.836496 L23.1083333,67.4087591 C28.3527778,67.0817518 33.2694444,68.389781 37.8583333,71.3328467 C44.7416667,75.7474453 46.7083333,81.6335766 46.7083333,84.5766423 L46.7083333,98.8014599 C55.8861111,99.1284672 62.4416667,99.1284672 66.375,98.8014599 C72.275,98.3109489 83.3399603,97.37456 90.4666667,84.5766423 C92.925,80.1620438 95.695414,73.309622 94.4,61.0321168 C93.7444444,54.8189781 91.1222222,48.6058394 86.5333333,42.3927007 Z M106.691667,29.6394161 C111.608333,35.5255474 115.377778,44.1912409 118,55.6364964 C109.805556,47.7883212 101.611111,42.3927007 93.4166667,39.449635 C81.125,35.0350365 72.275,34.0540146 62.4416667,34.0540146 L27.5333333,34.0540146 C19.8868026,33.4183015 14.0530379,29.8825546 9.34166667,25.7153285 C6.20075248,22.9371777 3.08686359,18.0320682 0,11 L67.85,11 C76.1726907,11 93.0453345,13.3023102 106.691667,29.6394161 Z" id="BLACK" fill="#000000" transform="translate(59, 67) rotate(180) translate(-59, -67)"></path>
        </g>
    </g>
</svg>