<svg xmlns="http://www.w3.org/2000/svg" width="32" height="32"><defs><path id="a" d="M0 0h32v32H0z"/></defs><path fill="#fe9800" fill-rule="evenodd" d="m17.156.438 11.152 6.347A3.35 3.35 0 0 1 30 9.695v12.61a3.35 3.35 0 0 1-1.692 2.91l-11.152 6.347a3.35 3.35 0 0 1-3.312 0L2.692 25.215A3.35 3.35 0 0 1 1 22.305V9.695c0-1.204.646-2.315 1.692-2.91L13.844.438a3.35 3.35 0 0 1 3.312 0m-.276 1.494a2.79 2.79 0 0 0-2.76 0L3.86 7.77a2.79 2.79 0 0 0-1.41 2.426v11.608a2.79 2.79 0 0 0 1.41 2.426l10.26 5.839a2.79 2.79 0 0 0 2.76 0l10.26-5.84a2.79 2.79 0 0 0 1.41-2.425V10.196a2.79 2.79 0 0 0-1.41-2.426Zm.731 15.422-.405 11.613-.59.341a2.23 2.23 0 0 1-2.232 0l-1.527-.88 4.07-11.187q.326.103.684.113m1.122-.24 4.463 8.395-3.339 1.928-1.785-10.115q.35-.058.661-.208m-2.236-.057-6.187 9.9-3.964-2.289 9.582-8.04q.25.255.569.429m3.139-.69 7.947 4.966v.355c0 .797-.425 1.534-1.116 1.933l-1.123.647-6.21-7.397q.288-.215.502-.504m-4.012-.118-12 6.38a2.2 2.2 0 0 1-.207-.941l-.001-4.026 11.905-2.095q.099.369.303.682m4.46-1.016 7.499.26v3.257l-7.7-2.802q.155-.334.2-.715M3.443 9.965l11.895 4.33a2.4 2.4 0 0 0-.096.625l.002.143-11.829-.415v-4.335q0-.177.028-.348m24.14.348-.001 3.087-7.496 1.326a2.4 2.4 0 0 0-.2-.744l7.66-4.074q.036.199.036.405M9.57 5.47l6.473 7.716c-.2.178-.37.389-.5.623L5.74 7.68zm13.556.98 2.922 1.687-6.43 5.395a2.4 2.4 0 0 0-.577-.546zm-7.684-4.056 1.798 10.212c-.271.048-.527.14-.76.27l-4.632-8.72 2.536-1.464a2.2 2.2 0 0 1 1.058-.298m2.653 1.151 3.154 1.821-2.682 7.37a2.5 2.5 0 0 0-.788-.165z" opacity=".75"/></svg>