<?xml version="1.0" encoding="UTF-8"?>
<svg width="128px" height="128px" viewBox="0 0 128 128" version="1.1" xmlns="http://www.w3.org/2000/svg" xmlns:xlink="http://www.w3.org/1999/xlink">
    <title>honey</title>
    <g id="honey" stroke="none" fill="none" fill-rule="evenodd" stroke-width="1">
        <g id="FREE-SPACE-FOR-YOU" transform="translate(13, 6)" fill="#FE9800">
            <path d="M31.292106,20.980756 L37.2429495,20.980756 C37.6704526,20.980756 37.9098544,20.6558537 37.9098544,20.2625508 C37.9098544,19.8350477 37.6875527,19.5272454 37.2429495,19.5272454 L31.292106,19.5272454 L31.292106,15.8336184 C31.292106,15.4916159 31.4973075,15.2864144 31.8222099,15.2864144 L38.2005565,15.2864144 C38.6622599,15.2864144 38.9016616,14.9615121 38.9016616,14.5340089 C38.9016616,14.1065058 38.6622599,13.7987036 38.2005565,13.7987036 L31.4118069,13.7987036 C30.197698,13.7987036 29.6675942,14.3117073 29.6675942,15.6284169 L29.6675942,26.4869963 C29.6675942,26.9828999 30.0095967,27.2223016 30.4713,27.2223016 C30.9501035,27.2223016 31.292106,26.9828999 31.292106,26.5040964 L31.292106,20.980756 Z" id="Path" fill-rule="nonzero"></path>
            <path d="M50.5639468,25.2044869 C49.2985376,22.0067635 48.7513336,20.8610552 47.7253261,20.5532529 C49.3156377,20.2112504 50.4271458,19.1852429 50.4271458,17.2187285 C50.4271458,15.1154132 49.0591358,13.7987036 46.5796177,13.7987036 L42.5781885,13.7987036 C41.3640796,13.7987036 40.8339757,14.3288074 40.8339757,15.6455171 L40.8339757,26.4869963 C40.8339757,26.9828999 41.1759782,27.2223016 41.6547817,27.2223016 C42.1164851,27.2223016 42.4413875,26.9828999 42.4413875,26.5040964 L42.4413875,21.1346572 L45.5878105,21.1346572 C47.297823,21.1346572 47.7766265,22.348766 49.0078354,25.6832904 L49.4353386,26.7776984 C49.5550394,27.0855006 49.8115413,27.2223016 50.1022434,27.2223016 C50.2219443,27.2223016 50.3587453,27.2052015 50.4784462,27.1710012 C50.8204487,27.0855006 51.0427503,26.8289988 51.0427503,26.5040964 C51.0427503,26.4014956 51.0256502,26.315995 50.9914499,26.2133943 L50.5639468,25.2044869 Z M42.4413875,19.7324469 L42.4413875,15.8165183 C42.4413875,15.4061153 42.646589,15.2180139 43.0056916,15.2180139 L46.477017,15.2180139 C47.9989281,15.2180139 48.7855338,16.0046197 48.7855338,17.4581303 C48.7855338,18.8261403 47.8279268,19.7324469 46.3744162,19.7324469 L42.4413875,19.7324469 Z" id="Shape" fill-rule="nonzero"></path>
            <path d="M54.7534774,20.8781553 L60.58462,20.8781553 C60.995023,20.8781553 61.2515249,20.5532529 61.2515249,20.15995 C61.2515249,19.7324469 61.0121231,19.4246447 60.58462,19.4246447 L54.7534774,19.4246447 L54.7534774,15.8849188 C54.7534774,15.4745158 54.9244787,15.2864144 55.3348817,15.2864144 L61.3541256,15.2864144 C61.7987289,15.2864144 62.0381306,14.9615121 62.0381306,14.5340089 C62.0381306,14.1065058 61.7987289,13.7987036 61.3541256,13.7987036 L54.8902784,13.7987036 C53.6761696,13.7987036 53.1460657,14.3288074 53.1460657,15.6455171 L53.1460657,25.2899875 C53.1460657,26.589597 53.6761696,27.1197009 54.8902784,27.1197009 L61.5080268,27.1197009 C61.95263,27.1197009 62.1920318,26.7776984 62.1920318,26.3672954 C62.1920318,25.9397923 61.95263,25.63199 61.5080268,25.63199 L55.386182,25.63199 C55.0099793,25.63199 54.7534774,25.4780889 54.7534774,25.084786 L54.7534774,20.8781553 Z" id="Path" fill-rule="nonzero"></path>
            <path d="M65.8172582,20.8781553 L71.6484008,20.8781553 C72.0588038,20.8781553 72.3153057,20.5532529 72.3153057,20.15995 C72.3153057,19.7324469 72.075904,19.4246447 71.6484008,19.4246447 L65.8172582,19.4246447 L65.8172582,15.8849188 C65.8172582,15.4745158 65.9882595,15.2864144 66.3986625,15.2864144 L72.4179065,15.2864144 C72.8625097,15.2864144 73.1019115,14.9615121 73.1019115,14.5340089 C73.1019115,14.1065058 72.8625097,13.7987036 72.4179065,13.7987036 L65.9540592,13.7987036 C64.7399504,13.7987036 64.2098465,14.3288074 64.2098465,15.6455171 L64.2098465,25.2899875 C64.2098465,26.589597 64.7399504,27.1197009 65.9540592,27.1197009 L72.5718076,27.1197009 C73.0164108,27.1197009 73.2558126,26.7776984 73.2558126,26.3672954 C73.2558126,25.9397923 73.0164108,25.63199 72.5718076,25.63199 L66.4499629,25.63199 C66.0737601,25.63199 65.8172582,25.4780889 65.8172582,25.084786 L65.8172582,20.8781553 Z" id="Path" fill-rule="nonzero"></path>
            <path d="M9.77967305,40.9340439 C6.52045906,40.2938412 5.50195469,39.2171365 5.50195469,37.1219275 C5.50195469,35.2013193 7.04426131,33.5135121 10.4198758,33.5135121 C13.6499897,33.5135121 14.8721949,35.1431191 15.3377969,36.8018262 C15.5705979,37.4129288 16.0944002,37.6457298 16.6182024,37.6457298 C16.7928032,37.6457298 16.9674039,37.6166297 17.1129045,37.5875295 C17.694907,37.471129 18.1896092,37.0346272 18.1896092,36.4235245 C18.1896092,36.2780239 18.160509,36.1325233 18.1023088,35.9870227 C17.462106,33.8918137 15.6578983,31.0982017 10.4198758,31.0982017 C4.94905231,31.0982017 2.67924257,34.0664144 2.67924257,37.1219275 C2.67924257,40.9340439 4.65805106,42.592751 9.0230698,43.4948549 L11.3510798,43.989557 C14.7848945,44.68796 16.0944002,45.7355645 16.0944002,48.1217748 C16.0944002,50.6243855 14.0282913,52.2248924 10.710877,52.2248924 C6.46225881,52.2248924 5.50195469,50.042383 4.97815244,48.0926746 C4.80355169,47.481572 4.25064931,47.2196709 3.69774694,47.2196709 C3.52314619,47.2196709 3.37764557,47.248771 3.20304482,47.2778711 C2.59194219,47.4233718 2.09724007,47.8598736 2.09724007,48.5000764 C2.09724007,48.6164769 2.12634019,48.7328774 2.15544032,48.878378 C2.85384332,51.2354881 4.22154919,54.6693029 10.8563777,54.6693029 C16.0653,54.6693029 18.9462124,51.8465908 18.9462124,48.0926746 C18.9462124,43.8731565 16.4727018,42.3308499 11.9330823,41.3705458 L9.77967305,40.9340439 Z" id="Path" fill-rule="nonzero"></path>
            <path d="M25.610141,44.920761 L32.1867692,44.920761 C36.8136891,44.920761 39.4909006,42.3890502 39.4909006,38.0240314 C39.4909006,33.8918137 36.9009895,31.5347036 32.3031697,31.5347036 L25.842942,31.5347036 C23.7768331,31.5347036 22.8747293,32.4368074 22.8747293,34.6775171 L22.8747293,53.1269963 C22.8747293,53.9708999 23.4276316,54.3783016 24.2424351,54.3783016 C25.0281385,54.3783016 25.610141,53.9708999 25.610141,53.1560964 L25.610141,44.920761 Z M25.610141,42.4763505 L25.610141,35.0267186 C25.610141,34.3865158 25.9011423,34.0082142 26.541345,34.0082142 L32.128569,34.0082142 C35.0385815,34.0082142 36.6390884,35.4632204 36.6390884,38.0822317 C36.6390884,40.9049438 35.0676816,42.4763505 32.128569,42.4763505 L25.610141,42.4763505 Z" id="Shape" fill-rule="nonzero"></path>
            <path d="M44.6125226,47.5688724 L54.6811658,47.5688724 L56.9800757,53.5925983 C57.1837765,54.1455006 57.6493785,54.4074017 58.1731808,54.4074017 C58.3477815,54.4074017 58.5223823,54.3783016 58.696983,54.3201014 C59.2789855,54.1746007 59.7445875,53.7380989 59.7445875,53.1560964 C59.7445875,52.9814956 59.7154874,52.835995 59.628187,52.6613943 L51.7129531,32.7278087 C51.3346514,31.7384044 50.5780482,31.3601028 49.6468442,31.3601028 C48.7447403,31.3601028 48.0172372,31.7384044 47.6389356,32.7278087 L39.7237016,52.603194 C39.6655013,52.7777948 39.6364012,52.9232954 39.6364012,53.0978961 C39.6364012,53.6507985 40.0729031,54.1455006 40.6549056,54.2910012 C40.8586065,54.3492015 41.0332072,54.3783016 41.2369081,54.3783016 C41.7316102,54.3783016 42.1681121,54.1455006 42.371813,53.5634981 L44.6125226,47.5688724 Z M45.4855263,45.1244619 L48.7738404,36.6854257 C49.1230419,35.8124219 49.4140432,34.8812179 49.6759443,33.8918137 C49.9378454,34.8812179 50.2579468,35.8124219 50.5780482,36.6563255 L53.8081621,45.1244619 L45.4855263,45.1244619 Z" id="Shape" fill-rule="nonzero"></path>
            <path d="M72.3449416,31.0982017 C66.2921156,31.0982017 62.3053985,35.7833218 62.3053985,42.8546522 C62.3053985,50.1005833 66.2921156,54.6693029 72.5486425,54.6693029 C77.7284647,54.6693029 80.1728752,51.4100889 81.1913796,48.5291765 C81.2495799,48.3545758 81.27868,48.2090751 81.27868,48.0344744 C81.27868,47.4233718 80.7548777,46.9868699 80.2601756,46.8704694 C80.0564747,46.8122691 79.8527739,46.783169 79.6781731,46.783169 C79.1252707,46.783169 78.6014685,47.0450701 78.3686675,47.6852729 C77.6120642,50.0132829 75.9533571,52.1084919 72.4613421,52.1084919 C68.0963234,52.1084919 65.215411,48.5000764 65.215411,42.8837523 C65.215411,37.1510277 68.0963234,33.6299126 72.4613421,33.6299126 C75.7787564,33.6299126 77.2337626,35.3468199 78.1067664,37.4420289 C78.3686675,37.9949313 78.8342695,38.1986322 79.3289716,38.1986322 C79.5617726,38.1986322 79.7945736,38.169532 80.0273746,38.0822317 C80.4638765,37.936731 80.9294785,37.5293293 80.9294785,36.9182267 C80.9294785,36.7436259 80.9003784,36.539925 80.813078,36.3362242 C79.7654735,33.7754132 77.4665636,31.0982017 72.3449416,31.0982017 Z" id="Path" fill-rule="nonzero"></path>
            <path d="M87.5934071,43.5821553 L97.5165497,43.5821553 C98.2149527,43.5821553 98.6514546,43.0292529 98.6514546,42.35995 C98.6514546,41.6324469 98.2440528,41.1086447 97.5165497,41.1086447 L87.5934071,41.1086447 L87.5934071,35.0849188 C87.5934071,34.3865158 87.8844083,34.0664144 88.5828113,34.0664144 L98.8260553,34.0664144 C99.5826586,34.0664144 99.9900603,33.5135121 99.9900603,32.7860089 C99.9900603,32.0585058 99.5826586,31.5347036 98.8260553,31.5347036 L87.8262081,31.5347036 C85.7600992,31.5347036 84.8579953,32.4368074 84.8579953,34.6775171 L84.8579953,51.0899875 C84.8579953,53.301597 85.7600992,54.2037009 87.8262081,54.2037009 L99.0879564,54.2037009 C99.8445597,54.2037009 100.251961,53.6216984 100.251961,52.9232954 C100.251961,52.1957923 99.8445597,51.67199 99.0879564,51.67199 L88.6701117,51.67199 C88.029909,51.67199 87.5934071,51.4100889 87.5934071,50.740786 L87.5934071,43.5821553 Z" id="Path" fill-rule="nonzero"></path>
            <path d="M35.4730866,66.980756 L41.42393,66.980756 C41.8514332,66.980756 42.0908349,66.6558537 42.0908349,66.2625508 C42.0908349,65.8350477 41.8685333,65.5272454 41.42393,65.5272454 L35.4730866,65.5272454 L35.4730866,61.8336184 C35.4730866,61.4916159 35.6782881,61.2864144 36.0031904,61.2864144 L42.381537,61.2864144 C42.8432404,61.2864144 43.0826422,60.9615121 43.0826422,60.5340089 C43.0826422,60.1065058 42.8432404,59.7987036 42.381537,59.7987036 L35.5927874,59.7987036 C34.3786786,59.7987036 33.8485747,60.3117073 33.8485747,61.6284169 L33.8485747,72.4869963 C33.8485747,72.9828999 34.1905772,73.2223016 34.6522806,73.2223016 C35.1310841,73.2223016 35.4730866,72.9828999 35.4730866,72.5040964 L35.4730866,66.980756 Z" id="Path" fill-rule="nonzero"></path>
            <path d="M50.4356959,59.5422017 C46.759169,59.5422017 44.4506522,62.2611215 44.4506522,66.4506522 C44.4506522,70.6914831 46.7762691,73.3933029 50.4356959,73.3933029 C54.0951226,73.3933029 56.3865394,70.674383 56.3865394,66.4677523 C56.3865394,62.2440214 54.0951226,59.5422017 50.4356959,59.5422017 Z M50.4356959,61.0128124 C53.0349149,61.0128124 54.693627,63.1332279 54.693627,66.3651515 C54.693627,69.8022766 53.1033154,71.905592 50.4356959,71.905592 C47.8193768,71.905592 46.1435645,69.7680764 46.1435645,66.4677523 C46.1435645,63.1674282 47.7851765,61.0128124 50.4356959,61.0128124 Z" id="Shape" fill-rule="nonzero"></path>
            <path d="M68.5105279,71.2044869 C67.2451187,68.0067635 66.6979147,66.8610552 65.6719072,66.5532529 C67.2622188,66.2112504 68.3737269,65.1852429 68.3737269,63.2187285 C68.3737269,61.1154132 67.0057169,59.7987036 64.5261988,59.7987036 L60.5247696,59.7987036 C59.3106607,59.7987036 58.7805568,60.3288074 58.7805568,61.6455171 L58.7805568,72.4869963 C58.7805568,72.9828999 59.1225593,73.2223016 59.6013628,73.2223016 C60.0630662,73.2223016 60.3879686,72.9828999 60.3879686,72.5040964 L60.3879686,67.1346572 L63.5343916,67.1346572 C65.2444041,67.1346572 65.7232076,68.348766 66.9544166,71.6832904 L67.3819197,72.7776984 C67.5016205,73.0855006 67.7581224,73.2223016 68.0488245,73.2223016 C68.1685254,73.2223016 68.3053264,73.2052015 68.4250273,73.1710012 C68.7670298,73.0855006 68.9893314,72.8289988 68.9893314,72.5040964 C68.9893314,72.4014956 68.9722313,72.315995 68.938031,72.2133943 L68.5105279,71.2044869 Z M60.3879686,65.7324469 L60.3879686,61.8165183 C60.3879686,61.4061153 60.5931701,61.2180139 60.9522727,61.2180139 L64.4235981,61.2180139 C65.9455092,61.2180139 66.7321149,62.0046197 66.7321149,63.4581303 C66.7321149,64.8261403 65.7745079,65.7324469 64.3209973,65.7324469 L60.3879686,65.7324469 Z" id="Shape" fill-rule="nonzero"></path>
            <path d="M28.9275552,89.3017498 L22.2927268,78.9421053 C22.0017255,78.5056034 21.6234239,78.3310027 21.2451223,78.3310027 C20.9832211,78.3310027 20.72132,78.4183031 20.4594189,78.5347036 C19.9938169,78.7966047 19.6155153,79.2331066 19.6155153,79.7278087 C19.6155153,79.9315096 19.6737155,80.1061103 19.790116,80.3098112 L27.5307493,91.8916609 L27.5307493,100.185197 C27.5307493,100.9709 28.0836516,101.378302 28.9275552,101.378302 C29.7132586,101.378302 30.2952611,100.9709 30.2952611,100.185197 L30.2952611,91.8916609 L37.9776941,80.3680114 C38.1231947,80.1643106 38.181395,79.9315096 38.181395,79.7278087 C38.181395,79.2331066 37.8321935,78.7966047 37.3956916,78.5638037 C37.1337905,78.4183031 36.8718894,78.3310027 36.6099882,78.3310027 C36.2025865,78.3310027 35.8242849,78.5056034 35.5623837,78.9421053 L28.9275552,89.3017498 Z" id="Path" fill-rule="nonzero"></path>
            <path d="M49.1812422,78.0982017 C42.9247153,78.0982017 38.9961985,82.7251215 38.9961985,89.8546522 C38.9961985,97.0714831 42.9538155,101.669303 49.1812422,101.669303 C55.4086689,101.669303 59.3080857,97.042383 59.3080857,89.8837523 C59.3080857,82.6960214 55.4086689,78.0982017 49.1812422,78.0982017 Z M49.1812422,80.6008124 C53.6044612,80.6008124 56.4271733,84.2092279 56.4271733,89.7091515 C56.4271733,95.5582766 53.7208617,99.137592 49.1812422,99.137592 C44.7289231,99.137592 41.8771108,95.5000764 41.8771108,89.8837523 C41.8771108,84.2674282 44.6707228,80.6008124 49.1812422,80.6008124 Z" id="Shape" fill-rule="nonzero"></path>
            <path d="M63.2948028,92.851965 C63.2948028,98.7010901 66.5249166,101.698403 72.1412408,101.698403 C77.9030655,101.698403 81.0167789,98.6137898 81.0167789,92.851965 L81.0167789,79.5532079 C81.0167789,78.7384044 80.4347764,78.3601028 79.6199729,78.3601028 C78.8051694,78.3601028 78.2231669,78.7384044 78.2231669,79.5532079 L78.2231669,92.7355645 C78.2231669,97.0132829 76.1279579,99.1666921 72.1121406,99.1666921 C68.1836238,99.1666921 66.0884148,97.042383 66.0884148,92.7646646 L66.0884148,79.5532079 C66.0884148,78.7384044 65.4773121,78.3601028 64.7207089,78.3601028 C63.8768053,78.3601028 63.2948028,78.7384044 63.2948028,79.5532079 L63.2948028,92.851965 Z" id="Path" fill-rule="nonzero"></path>
        </g>
    </g>
</svg>