<svg width="20" height="20" viewBox="0 0 20 20">
    <path d="M10 0c2.72 0 3.06 0.01 4.12 0.06 0.83 0.02 1.65 0.17 2.43 0.46 1.34 0.52 2.4 1.58 2.93 2.93 0.29 0.77 0.45 1.59 0.46 2.42 0.05 1.07 0.06 1.41 0.06 4.13s-0.01 3.06-0.06 4.12c-0.02 0.83-0.17 1.65-0.46 2.43-0.52 1.34-1.58 2.4-2.93 2.92-0.77 0.3-1.6 0.46-2.43 0.48-1.07 0.05-1.41 0.06-4.12 0.06s-3.06-0.01-4.12-0.06c-0.83-0.02-1.65-0.17-2.43-0.46-1.34-0.52-2.4-1.58-2.92-2.93-0.3-0.77-0.46-1.6-0.48-2.43C0.01 13.06 0 12.72 0 10s0.01-3.06 0.06-4.12c0.02-0.83 0.17-1.65 0.46-2.43 0.52-1.34 1.58-2.4 2.93-2.93 0.77-0.29 1.59-0.45 2.42-0.46C6.94 0.01 7.28 0 10 0zm4.07 1.89c-1.05-0.05-1.37-0.06-4.04-0.06s-2.98 0.01-4.04 0.06c-0.63 0.01-1.26 0.12-1.86 0.34-0.87 0.34-1.56 1.03-1.9 1.9-0.22 0.6-0.34 1.22-0.34 1.86-0.05 1.05-0.06 1.37-0.06 4.04s0.01 2.98 0.06 4.04c0.01 0.63 0.12 1.26 0.34 1.86 0.34 0.87 1.03 1.56 1.9 1.9 0.6 0.22 1.22 0.34 1.86 0.34 1.05 0.05 1.37 0.06 4.04 0.06s2.98-0.01 4.04-0.06c0.63-0.01 1.26-0.12 1.86-0.34 0.87-0.34 1.56-1.03 1.9-1.9 0.22-0.6 0.34-1.22 0.34-1.86 0.05-1.05 0.06-1.37 0.06-4.04s-0.01-2.98-0.06-4.04c-0.01-0.63-0.12-1.26-0.34-1.86-0.34-0.87-1.03-1.56-1.9-1.9-0.6-0.22-1.22-0.34-1.86-0.34zM10 13.33c1.84 0 3.33-1.5 3.33-3.33s-1.5-3.33-3.33-3.33-3.33 1.5-3.33 3.33 1.5 3.33 3.33 3.33zm-0.03-8.5c2.84 0 5.14 2.3 5.14 5.14s-2.3 5.14-5.14 5.14-5.14-2.3-5.14-5.14c0-1.36 0.54-2.67 1.51-3.63 0.96-0.96 2.27-1.51 3.63-1.51zm6.6-0.13c0 0.49-0.29 0.92-0.74 1.11-0.45 0.18-0.96 0.08-1.31-0.26-0.34-0.34-0.44-0.86-0.26-1.31 0.19-0.45 0.62-0.74 1.11-0.74 0.66 0 1.2 0.54 1.2 1.2z"/>
</svg>
