<svg width="20" height="20" viewBox="0 0 20 20">
    <path d="M13.71 0.76C17.6 2.32 20 5.97 20 10.01c0 3.44-1.6 5.05-3.6 5.05-1.12 0-2.16-0.58-2.75-1.54-1.66 1.71-4.3 1.99-6.28 0.67-1.98-1.32-2.76-3.87-1.86-6.09 0.9-2.22 3.24-3.48 5.57-3.02 0.83 0.17 1.57 0.53 2.19 1.05 0.08-0.5 0.4-0.75 0.96-0.75 0.64 0 0.97 0.32 0.98 0.96l-0.01 5.95c0.21 0.48 0.66 0.78 1.2 0.78 0.89 0 1.61-0.76 1.61-3.05 0.02-3.68-2.44-6.9-5.96-7.83-3.53-0.93-7.22 0.68-8.98 3.9C0.95 9.32 1.58 13.34 4.23 15.85c2.65 2.51 6.66 2.88 9.74 0.9l1.3 1.51c-1.64 1.13-3.58 1.73-5.57 1.73-4 0-7.61-2.44-9.13-6.18C-0.78 10.06 0.08 5.76 2.92 2.91 5.77 0.06 10.03-0.79 13.72 0.76zM13.04 10.05c0-1.68-1.36-3.05-3.02-3.05-1.66 0-3.02 1.37-3.02 3.05s1.36 3.05 3.02 3.05c1.66 0 3.02-1.37 3.02-3.05z"/>
</svg>
