<svg width="20" height="20" viewBox="0 0 20 20">
    <path d="M9.871 0.013c0 0-5.29-0.31-7.87 2.05C0.551 3.493 0.061 5.593 0.011 8.193c-0.05 2.6-0.12 7.46 4.59 8.78v2.01c0 0-0.03 0.81 0.51 0.98 0.65 0.2 1.03-0.42 1.66-1.08 0.34-0.36 0.81-0.9 1.16-1.32 3.22 0.27 5.7-0.35 5.98-0.44 0.65-0.21 4.33-0.68 4.93-5.55 0.61-5.02-0.31-8.19-1.97-9.62-0.5-0.46-2.52-1.92-7-1.94zM15.408 14.741c-1.658 1.496-5.844 1.57-7.442 1.45 0 0-1.474 1.924-2.065 2.562-0.065 0.09-0.247 0.219-0.349 0.189-0.102-0.03-0.16-0.115-0.16-0.305 0-0.18 0.094-1.308 0.282-3.384-3.667-1.097-4.084-3.876-4.038-6.04 0.046-2.165-0.011-4.442 2.041-6.231 2.053-1.788 6.32-1.483 6.32-1.483 3.51 0.02 5.02 0.857 5.408 1.236 1.412 1.153 2.083 3.043 2.012 5.669-0.105 3.939-0.354 4.84-2.01 6.336zM11.77 8.3c-0.13 0-0.24-0.11-0.25-0.24-0.04-0.86-0.45-1.28-1.28-1.32-0.14-0.01-0.25-0.13-0.24-0.27 0.01-0.14 0.13-0.25 0.27-0.24 1.08 0.06 1.7 0.68 1.75 1.8 0.01 0.14-0.1 0.26-0.24 0.27zm0.94 0.22c0.05-0.79-0.22-1.56-0.75-2.14-0.53-0.57-1.25-0.88-2.21-0.95-0.09-0.01-0.17-0.06-0.21-0.14-0.04-0.08-0.03-0.18 0.02-0.25 0.05-0.07 0.14-0.11 0.23-0.1 1.08 0.08 1.93 0.45 2.54 1.12 0.62 0.68 0.94 1.58 0.89 2.5-0.01 0.07-0.04 0.13-0.09 0.18-0.05 0.05-0.12 0.07-0.19 0.07h-0.18zM14.447 9.274c-0.14 0-0.297-0.094-0.297-0.234-0.01-1.53-0.47-2.74-1.37-3.61-0.9-0.87-2.11-1.35-3.37-1.33-0.13-0.01-0.23-0.12-0.23-0.25s0.1-0.25 0.23-0.26c1.39-0.03 2.73 0.49 3.73 1.45 1 0.97 1.51 2.3 1.52 3.96 0 0.07-0.073 0.274-0.213 0.274zM10.069 11.097c0.279 0.043 0.602-0.11 0.971-0.46 0.27-0.29 0.71-0.35 1.05-0.14 0.32 0.18 1.79 1.28 1.79 1.28 0.28 0.23 0.34 0.63 0.15 0.94-0.21 0.36-0.47 0.68-0.78 0.96-0.22 0.2-0.5 0.33-0.79 0.38-0.733 0-1.544-0.44-2.644-1.05-0.65-0.34-1.27-0.74-1.84-1.19-0.29-0.22-0.56-0.46-0.82-0.72-0.413-0.433-0.697-0.747-0.85-0.94-0.46-0.57-0.87-1.18-1.22-1.82-0.61-1.11-0.9-1.77-1.01-2.16l-0.01-0.01c-0.03-0.11-0.06-0.41-0.06-0.45 0.05-0.3 0.19-0.58 0.4-0.81l0.01-0.01c0.28-0.31 0.6-0.57 0.96-0.78l0.01-0.01c0.31-0.19 0.71-0.12 0.94 0.15 0 0 1.12 1.46 1.3 1.78 0.21 0.34 0.15 0.78-0.14 1.05-0.278 0.321-0.385 0.624-0.32 0.91 0 0 0.042 0.795 1.055 1.797 0.538 0.532 0.952 1.162 1.854 1.302z"/>
</svg>